<?xml version="1.0" encoding="utf-8" standalone="no"?>
<!DOCTYPE svg PUBLIC "-//W3C//DTD SVG 1.1//EN"
  "http://www.w3.org/Graphics/SVG/1.1/DTD/svg11.dtd">
<svg xmlns:xlink="http://www.w3.org/1999/xlink" width="864pt" height="504pt" viewBox="0 0 864 504" xmlns="http://www.w3.org/2000/svg" version="1.1">
 <metadata>
  <rdf:RDF xmlns:dc="http://purl.org/dc/elements/1.1/" xmlns:cc="http://creativecommons.org/ns#" xmlns:rdf="http://www.w3.org/1999/02/22-rdf-syntax-ns#">
   <cc:Work>
    <dc:type rdf:resource="http://purl.org/dc/dcmitype/StillImage"/>
    <dc:date>2025-05-29T19:53:46.175378</dc:date>
    <dc:format>image/svg+xml</dc:format>
    <dc:creator>
     <cc:Agent>
      <dc:title>Matplotlib v3.10.0, https://matplotlib.org/</dc:title>
     </cc:Agent>
    </dc:creator>
   </cc:Work>
  </rdf:RDF>
 </metadata>
 <defs>
  <style type="text/css">*{stroke-linejoin: round; stroke-linecap: butt}</style>
 </defs>
 <g id="figure_1">
  <g id="patch_1">
   <path d="M 0 504 
L 864 504 
L 864 0 
L 0 0 
z
" style="fill: #ffffff"/>
  </g>
  <g id="axes_1">
   <g id="patch_2">
    <path d="M 56.97875 459.16 
L 561.2 459.16 
L 561.2 26.16 
L 56.97875 26.16 
z
" style="fill: #ffffff"/>
   </g>
   <g id="matplotlib.axis_1">
    <g id="xtick_1">
     <g id="line2d_1">
      <path d="M 79.897898 459.16 
L 79.897898 26.16 
" clip-path="url(#p232a2f972b)" style="fill: none; stroke: #b0b0b0; stroke-width: 0.8; stroke-linecap: square"/>
     </g>
     <g id="line2d_2">
      <defs>
       <path id="m1a1875170c" d="M 0 0 
L 0 3.5 
" style="stroke: #000000; stroke-width: 0.8"/>
      </defs>
      <g>
       <use xlink:href="#m1a1875170c" x="79.897898" y="459.16" style="stroke: #000000; stroke-width: 0.8"/>
      </g>
     </g>
     <g id="text_1">
      <!-- 0 -->
      <g transform="translate(76.965866 474.15375) scale(0.1 -0.1)">
       <defs>
        <path id="MicrosoftYaHei-30" d="M 284 2325 
Q 284 3606 709 4264 
Q 1134 4922 1941 4922 
Q 3478 4922 3478 2441 
Q 3478 1216 3045 567 
Q 2613 -81 1831 -81 
Q 1094 -81 689 534 
Q 284 1150 284 2325 
z
M 909 2353 
Q 909 425 1888 425 
Q 2850 425 2850 2384 
Q 2850 4413 1906 4413 
Q 909 4413 909 2353 
z
" transform="scale(0.015625)"/>
       </defs>
       <use xlink:href="#MicrosoftYaHei-30"/>
      </g>
     </g>
    </g>
    <g id="xtick_2">
     <g id="line2d_3">
      <path d="M 143.579886 459.16 
L 143.579886 26.16 
" clip-path="url(#p232a2f972b)" style="fill: none; stroke: #b0b0b0; stroke-width: 0.8; stroke-linecap: square"/>
     </g>
     <g id="line2d_4">
      <g>
       <use xlink:href="#m1a1875170c" x="143.579886" y="459.16" style="stroke: #000000; stroke-width: 0.8"/>
      </g>
     </g>
     <g id="text_2">
      <!-- 500 -->
      <g transform="translate(134.783793 474.15375) scale(0.1 -0.1)">
       <defs>
        <path id="MicrosoftYaHei-35" d="M 3294 1494 
Q 3294 784 2823 350 
Q 2353 -84 1559 -84 
Q 878 -84 544 119 
L 544 744 
Q 1034 425 1544 425 
Q 2050 425 2361 704 
Q 2672 984 2672 1447 
Q 2672 1909 2348 2167 
Q 2025 2425 1434 2425 
Q 978 2425 613 2384 
L 791 4841 
L 3053 4841 
L 3053 4303 
L 1306 4303 
L 1206 2931 
L 1647 2950 
Q 2416 2950 2855 2567 
Q 3294 2184 3294 1494 
z
" transform="scale(0.015625)"/>
       </defs>
       <use xlink:href="#MicrosoftYaHei-35"/>
       <use xlink:href="#MicrosoftYaHei-30" transform="translate(58.642578 0)"/>
       <use xlink:href="#MicrosoftYaHei-30" transform="translate(117.285156 0)"/>
      </g>
     </g>
    </g>
    <g id="xtick_3">
     <g id="line2d_5">
      <path d="M 207.261875 459.16 
L 207.261875 26.16 
" clip-path="url(#p232a2f972b)" style="fill: none; stroke: #b0b0b0; stroke-width: 0.8; stroke-linecap: square"/>
     </g>
     <g id="line2d_6">
      <g>
       <use xlink:href="#m1a1875170c" x="207.261875" y="459.16" style="stroke: #000000; stroke-width: 0.8"/>
      </g>
     </g>
     <g id="text_3">
      <!-- 1000 -->
      <g transform="translate(195.53375 474.15375) scale(0.1 -0.1)">
       <defs>
        <path id="MicrosoftYaHei-31" d="M 1781 0 
L 1781 4141 
Q 1638 3997 1295 3819 
Q 953 3641 663 3569 
L 663 4169 
Q 1047 4275 1484 4508 
Q 1922 4741 2156 4947 
L 2388 4947 
L 2388 0 
L 1781 0 
z
" transform="scale(0.015625)"/>
       </defs>
       <use xlink:href="#MicrosoftYaHei-31"/>
       <use xlink:href="#MicrosoftYaHei-30" transform="translate(58.642578 0)"/>
       <use xlink:href="#MicrosoftYaHei-30" transform="translate(117.285156 0)"/>
       <use xlink:href="#MicrosoftYaHei-30" transform="translate(175.927734 0)"/>
      </g>
     </g>
    </g>
    <g id="xtick_4">
     <g id="line2d_7">
      <path d="M 270.943864 459.16 
L 270.943864 26.16 
" clip-path="url(#p232a2f972b)" style="fill: none; stroke: #b0b0b0; stroke-width: 0.8; stroke-linecap: square"/>
     </g>
     <g id="line2d_8">
      <g>
       <use xlink:href="#m1a1875170c" x="270.943864" y="459.16" style="stroke: #000000; stroke-width: 0.8"/>
      </g>
     </g>
     <g id="text_4">
      <!-- 1500 -->
      <g transform="translate(259.215739 474.15375) scale(0.1 -0.1)">
       <use xlink:href="#MicrosoftYaHei-31"/>
       <use xlink:href="#MicrosoftYaHei-35" transform="translate(58.642578 0)"/>
       <use xlink:href="#MicrosoftYaHei-30" transform="translate(117.285156 0)"/>
       <use xlink:href="#MicrosoftYaHei-30" transform="translate(175.927734 0)"/>
      </g>
     </g>
    </g>
    <g id="xtick_5">
     <g id="line2d_9">
      <path d="M 334.625852 459.16 
L 334.625852 26.16 
" clip-path="url(#p232a2f972b)" style="fill: none; stroke: #b0b0b0; stroke-width: 0.8; stroke-linecap: square"/>
     </g>
     <g id="line2d_10">
      <g>
       <use xlink:href="#m1a1875170c" x="334.625852" y="459.16" style="stroke: #000000; stroke-width: 0.8"/>
      </g>
     </g>
     <g id="text_5">
      <!-- 2000 -->
      <g transform="translate(322.897727 474.15375) scale(0.1 -0.1)">
       <defs>
        <path id="MicrosoftYaHei-32" d="M 2666 3572 
Q 2666 3963 2419 4186 
Q 2172 4409 1747 4409 
Q 1447 4409 1140 4256 
Q 834 4103 569 3819 
L 569 4413 
Q 806 4659 1107 4790 
Q 1409 4922 1816 4922 
Q 2472 4922 2872 4570 
Q 3272 4219 3272 3619 
Q 3272 3084 3026 2693 
Q 2781 2303 2188 1894 
Q 1581 1475 1376 1294 
Q 1172 1113 1090 947 
Q 1009 781 1009 544 
L 3416 544 
L 3416 0 
L 372 0 
L 372 241 
Q 372 659 486 951 
Q 600 1244 862 1520 
Q 1125 1797 1681 2184 
Q 2250 2584 2458 2886 
Q 2666 3188 2666 3572 
z
" transform="scale(0.015625)"/>
       </defs>
       <use xlink:href="#MicrosoftYaHei-32"/>
       <use xlink:href="#MicrosoftYaHei-30" transform="translate(58.642578 0)"/>
       <use xlink:href="#MicrosoftYaHei-30" transform="translate(117.285156 0)"/>
       <use xlink:href="#MicrosoftYaHei-30" transform="translate(175.927734 0)"/>
      </g>
     </g>
    </g>
    <g id="xtick_6">
     <g id="line2d_11">
      <path d="M 398.307841 459.16 
L 398.307841 26.16 
" clip-path="url(#p232a2f972b)" style="fill: none; stroke: #b0b0b0; stroke-width: 0.8; stroke-linecap: square"/>
     </g>
     <g id="line2d_12">
      <g>
       <use xlink:href="#m1a1875170c" x="398.307841" y="459.16" style="stroke: #000000; stroke-width: 0.8"/>
      </g>
     </g>
     <g id="text_6">
      <!-- 2500 -->
      <g transform="translate(386.579716 474.15375) scale(0.1 -0.1)">
       <use xlink:href="#MicrosoftYaHei-32"/>
       <use xlink:href="#MicrosoftYaHei-35" transform="translate(58.642578 0)"/>
       <use xlink:href="#MicrosoftYaHei-30" transform="translate(117.285156 0)"/>
       <use xlink:href="#MicrosoftYaHei-30" transform="translate(175.927734 0)"/>
      </g>
     </g>
    </g>
    <g id="xtick_7">
     <g id="line2d_13">
      <path d="M 461.98983 459.16 
L 461.98983 26.16 
" clip-path="url(#p232a2f972b)" style="fill: none; stroke: #b0b0b0; stroke-width: 0.8; stroke-linecap: square"/>
     </g>
     <g id="line2d_14">
      <g>
       <use xlink:href="#m1a1875170c" x="461.98983" y="459.16" style="stroke: #000000; stroke-width: 0.8"/>
      </g>
     </g>
     <g id="text_7">
      <!-- 3000 -->
      <g transform="translate(450.261705 474.15375) scale(0.1 -0.1)">
       <defs>
        <path id="MicrosoftYaHei-33" d="M 447 809 
Q 944 425 1569 425 
Q 2069 425 2361 670 
Q 2653 916 2653 1328 
Q 2653 2247 1338 2247 
L 934 2247 
L 934 2753 
L 1319 2753 
Q 2484 2753 2484 3616 
Q 2484 4413 1594 4413 
Q 1084 4413 634 4069 
L 634 4647 
Q 1109 4922 1744 4922 
Q 2363 4922 2738 4598 
Q 3113 4275 3113 3759 
Q 3113 2809 2144 2538 
L 2144 2525 
Q 2669 2469 2973 2155 
Q 3278 1841 3278 1372 
Q 3278 719 2808 319 
Q 2338 -81 1556 -81 
Q 869 -81 447 175 
L 447 809 
z
" transform="scale(0.015625)"/>
       </defs>
       <use xlink:href="#MicrosoftYaHei-33"/>
       <use xlink:href="#MicrosoftYaHei-30" transform="translate(58.642578 0)"/>
       <use xlink:href="#MicrosoftYaHei-30" transform="translate(117.285156 0)"/>
       <use xlink:href="#MicrosoftYaHei-30" transform="translate(175.927734 0)"/>
      </g>
     </g>
    </g>
    <g id="xtick_8">
     <g id="line2d_15">
      <path d="M 525.671819 459.16 
L 525.671819 26.16 
" clip-path="url(#p232a2f972b)" style="fill: none; stroke: #b0b0b0; stroke-width: 0.8; stroke-linecap: square"/>
     </g>
     <g id="line2d_16">
      <g>
       <use xlink:href="#m1a1875170c" x="525.671819" y="459.16" style="stroke: #000000; stroke-width: 0.8"/>
      </g>
     </g>
     <g id="text_8">
      <!-- 3500 -->
      <g transform="translate(513.943694 474.15375) scale(0.1 -0.1)">
       <use xlink:href="#MicrosoftYaHei-33"/>
       <use xlink:href="#MicrosoftYaHei-35" transform="translate(58.642578 0)"/>
       <use xlink:href="#MicrosoftYaHei-30" transform="translate(117.285156 0)"/>
       <use xlink:href="#MicrosoftYaHei-30" transform="translate(175.927734 0)"/>
      </g>
     </g>
    </g>
    <g id="text_9">
     <!-- 时间 (s) -->
     <g transform="translate(291.954219 488.633437) scale(0.1 -0.1)">
      <defs>
       <path id="MicrosoftYaHei-65f6" d="M 344 4728 
L 2500 4728 
L 2500 -366 
L 2006 -366 
L 2006 153 
L 838 153 
L 838 -441 
L 344 -441 
L 344 4728 
z
M 2706 3941 
L 4925 3941 
L 4925 5322 
L 5425 5322 
L 5425 3941 
L 6313 3941 
L 6313 3478 
L 5425 3478 
L 5425 116 
Q 5425 -722 4625 -722 
Q 4263 -722 3563 -703 
Q 3531 -478 3463 -178 
Q 4119 -228 4488 -228 
Q 4925 -228 4925 216 
L 4925 3478 
L 2706 3478 
L 2706 3941 
z
M 838 616 
L 2006 616 
L 2006 2234 
L 838 2234 
L 838 616 
z
M 2006 4266 
L 838 4266 
L 838 2684 
L 2006 2684 
L 2006 4266 
z
M 3406 2878 
Q 3906 1966 4163 1422 
Q 4000 1347 3663 1172 
Q 3419 1766 2963 2653 
L 3406 2878 
z
" transform="scale(0.015625)"/>
       <path id="MicrosoftYaHei-95f4" d="M 1863 3647 
L 4513 3647 
L 4513 553 
L 2313 553 
L 2313 166 
L 1863 166 
L 1863 3647 
z
M 2388 4453 
L 2388 4922 
L 6013 4922 
L 6013 -28 
Q 6013 -816 5119 -816 
Q 4756 -816 4169 -803 
Q 4144 -616 4069 -297 
Q 4588 -334 5056 -334 
Q 5525 -334 5525 122 
L 5525 4453 
L 2388 4453 
z
M 419 4084 
L 906 4084 
L 906 -816 
L 419 -816 
L 419 4084 
z
M 2313 997 
L 4063 997 
L 4063 1884 
L 2313 1884 
L 2313 997 
z
M 4063 3203 
L 2313 3203 
L 2313 2328 
L 4063 2328 
L 4063 3203 
z
M 744 5003 
L 1100 5322 
Q 1575 4872 1981 4447 
L 1575 4091 
Q 1194 4541 744 5003 
z
" transform="scale(0.015625)"/>
       <path id="MicrosoftYaHei-20" transform="scale(0.015625)"/>
       <path id="MicrosoftYaHei-28" d="M 1531 -1100 
Q 478 100 478 1847 
Q 478 3594 1531 4841 
L 2072 4841 
Q 1016 3544 1016 1853 
Q 1016 166 2066 -1100 
L 1531 -1100 
z
" transform="scale(0.015625)"/>
       <path id="MicrosoftYaHei-73" d="M 353 747 
Q 816 413 1350 413 
Q 2066 413 2066 881 
Q 2066 1081 1909 1211 
Q 1753 1341 1275 1519 
Q 700 1750 528 1976 
Q 356 2203 356 2525 
Q 356 2984 745 3261 
Q 1134 3538 1703 3538 
Q 2144 3538 2522 3384 
L 2522 2794 
Q 2134 3044 1644 3044 
Q 1350 3044 1165 2916 
Q 981 2788 981 2578 
Q 981 2372 1114 2256 
Q 1247 2141 1703 1959 
Q 2281 1744 2484 1512 
Q 2688 1281 2688 941 
Q 2688 466 2298 192 
Q 1909 -81 1291 -81 
Q 753 -81 353 122 
L 353 747 
z
" transform="scale(0.015625)"/>
       <path id="MicrosoftYaHei-29" d="M 78 -1100 
Q 1131 163 1131 1853 
Q 1131 3547 72 4841 
L 616 4841 
Q 1672 3603 1672 1847 
Q 1672 91 616 -1100 
L 78 -1100 
z
" transform="scale(0.015625)"/>
      </defs>
      <use xlink:href="#MicrosoftYaHei-65f6"/>
      <use xlink:href="#MicrosoftYaHei-95f4" transform="translate(100 0)"/>
      <use xlink:href="#MicrosoftYaHei-20" transform="translate(200 0)"/>
      <use xlink:href="#MicrosoftYaHei-28" transform="translate(229.589844 0)"/>
      <use xlink:href="#MicrosoftYaHei-73" transform="translate(262.988281 0)"/>
      <use xlink:href="#MicrosoftYaHei-29" transform="translate(309.277344 0)"/>
     </g>
    </g>
   </g>
   <g id="matplotlib.axis_2">
    <g id="ytick_1">
     <g id="line2d_17">
      <path d="M 56.97875 439.478182 
L 561.2 439.478182 
" clip-path="url(#p232a2f972b)" style="fill: none; stroke: #b0b0b0; stroke-width: 0.8; stroke-linecap: square"/>
     </g>
     <g id="line2d_18">
      <defs>
       <path id="mc2efdb5044" d="M 0 0 
L -3.5 0 
" style="stroke: #000000; stroke-width: 0.8"/>
      </defs>
      <g>
       <use xlink:href="#mc2efdb5044" x="56.97875" y="439.478182" style="stroke: #000000; stroke-width: 0.8"/>
      </g>
     </g>
     <g id="text_10">
      <!-- 5000 -->
      <g transform="translate(26.5225 443.475057) scale(0.1 -0.1)">
       <use xlink:href="#MicrosoftYaHei-35"/>
       <use xlink:href="#MicrosoftYaHei-30" transform="translate(58.642578 0)"/>
       <use xlink:href="#MicrosoftYaHei-30" transform="translate(117.285156 0)"/>
       <use xlink:href="#MicrosoftYaHei-30" transform="translate(175.927734 0)"/>
      </g>
     </g>
    </g>
    <g id="ytick_2">
     <g id="line2d_19">
      <path d="M 56.97875 360.750909 
L 561.2 360.750909 
" clip-path="url(#p232a2f972b)" style="fill: none; stroke: #b0b0b0; stroke-width: 0.8; stroke-linecap: square"/>
     </g>
     <g id="line2d_20">
      <g>
       <use xlink:href="#mc2efdb5044" x="56.97875" y="360.750909" style="stroke: #000000; stroke-width: 0.8"/>
      </g>
     </g>
     <g id="text_11">
      <!-- 5100 -->
      <g transform="translate(26.5225 364.747784) scale(0.1 -0.1)">
       <use xlink:href="#MicrosoftYaHei-35"/>
       <use xlink:href="#MicrosoftYaHei-31" transform="translate(58.642578 0)"/>
       <use xlink:href="#MicrosoftYaHei-30" transform="translate(117.285156 0)"/>
       <use xlink:href="#MicrosoftYaHei-30" transform="translate(175.927734 0)"/>
      </g>
     </g>
    </g>
    <g id="ytick_3">
     <g id="line2d_21">
      <path d="M 56.97875 282.023636 
L 561.2 282.023636 
" clip-path="url(#p232a2f972b)" style="fill: none; stroke: #b0b0b0; stroke-width: 0.8; stroke-linecap: square"/>
     </g>
     <g id="line2d_22">
      <g>
       <use xlink:href="#mc2efdb5044" x="56.97875" y="282.023636" style="stroke: #000000; stroke-width: 0.8"/>
      </g>
     </g>
     <g id="text_12">
      <!-- 5200 -->
      <g transform="translate(26.5225 286.020511) scale(0.1 -0.1)">
       <use xlink:href="#MicrosoftYaHei-35"/>
       <use xlink:href="#MicrosoftYaHei-32" transform="translate(58.642578 0)"/>
       <use xlink:href="#MicrosoftYaHei-30" transform="translate(117.285156 0)"/>
       <use xlink:href="#MicrosoftYaHei-30" transform="translate(175.927734 0)"/>
      </g>
     </g>
    </g>
    <g id="ytick_4">
     <g id="line2d_23">
      <path d="M 56.97875 203.296364 
L 561.2 203.296364 
" clip-path="url(#p232a2f972b)" style="fill: none; stroke: #b0b0b0; stroke-width: 0.8; stroke-linecap: square"/>
     </g>
     <g id="line2d_24">
      <g>
       <use xlink:href="#mc2efdb5044" x="56.97875" y="203.296364" style="stroke: #000000; stroke-width: 0.8"/>
      </g>
     </g>
     <g id="text_13">
      <!-- 5300 -->
      <g transform="translate(26.5225 207.293239) scale(0.1 -0.1)">
       <use xlink:href="#MicrosoftYaHei-35"/>
       <use xlink:href="#MicrosoftYaHei-33" transform="translate(58.642578 0)"/>
       <use xlink:href="#MicrosoftYaHei-30" transform="translate(117.285156 0)"/>
       <use xlink:href="#MicrosoftYaHei-30" transform="translate(175.927734 0)"/>
      </g>
     </g>
    </g>
    <g id="ytick_5">
     <g id="line2d_25">
      <path d="M 56.97875 124.569091 
L 561.2 124.569091 
" clip-path="url(#p232a2f972b)" style="fill: none; stroke: #b0b0b0; stroke-width: 0.8; stroke-linecap: square"/>
     </g>
     <g id="line2d_26">
      <g>
       <use xlink:href="#mc2efdb5044" x="56.97875" y="124.569091" style="stroke: #000000; stroke-width: 0.8"/>
      </g>
     </g>
     <g id="text_14">
      <!-- 5400 -->
      <g transform="translate(26.5225 128.565966) scale(0.1 -0.1)">
       <defs>
        <path id="MicrosoftYaHei-34" d="M 2906 4841 
L 2906 1644 
L 3631 1644 
L 3631 1138 
L 2906 1138 
L 2906 0 
L 2313 0 
L 2313 1138 
L 53 1138 
L 53 1616 
Q 656 2294 1265 3178 
Q 1875 4063 2272 4841 
L 2906 4841 
z
M 741 1644 
L 2313 1644 
L 2313 3950 
Q 1988 3366 1616 2817 
Q 1244 2269 741 1644 
z
" transform="scale(0.015625)"/>
       </defs>
       <use xlink:href="#MicrosoftYaHei-35"/>
       <use xlink:href="#MicrosoftYaHei-34" transform="translate(58.642578 0)"/>
       <use xlink:href="#MicrosoftYaHei-30" transform="translate(117.285156 0)"/>
       <use xlink:href="#MicrosoftYaHei-30" transform="translate(175.927734 0)"/>
      </g>
     </g>
    </g>
    <g id="ytick_6">
     <g id="line2d_27">
      <path d="M 56.97875 45.841818 
L 561.2 45.841818 
" clip-path="url(#p232a2f972b)" style="fill: none; stroke: #b0b0b0; stroke-width: 0.8; stroke-linecap: square"/>
     </g>
     <g id="line2d_28">
      <g>
       <use xlink:href="#mc2efdb5044" x="56.97875" y="45.841818" style="stroke: #000000; stroke-width: 0.8"/>
      </g>
     </g>
     <g id="text_15">
      <!-- 5500 -->
      <g transform="translate(26.5225 49.838693) scale(0.1 -0.1)">
       <use xlink:href="#MicrosoftYaHei-35"/>
       <use xlink:href="#MicrosoftYaHei-35" transform="translate(58.642578 0)"/>
       <use xlink:href="#MicrosoftYaHei-30" transform="translate(117.285156 0)"/>
       <use xlink:href="#MicrosoftYaHei-30" transform="translate(175.927734 0)"/>
      </g>
     </g>
    </g>
    <g id="text_16">
     <!-- 剩余能量 (单位 E_max=5500.0) -->
     <g transform="translate(19.969375 313.506875) rotate(-90) scale(0.1 -0.1)">
      <defs>
       <path id="MicrosoftYaHei-5269" d="M 106 -84 
Q 1356 809 1931 1966 
L 1931 3472 
L 144 3472 
L 144 3922 
L 1931 3922 
L 1931 4528 
Q 1225 4503 506 4478 
Q 469 4691 419 4928 
Q 2869 4997 3956 5072 
L 4044 4622 
Q 3225 4584 2388 4547 
L 2388 3922 
L 4200 3922 
L 4200 3472 
L 2388 3472 
L 2388 1672 
Q 3156 1047 4075 247 
L 3738 -109 
Q 3044 547 2388 1147 
L 2388 -834 
L 1931 -834 
L 1931 1184 
Q 1375 322 456 -484 
Q 319 -316 106 -84 
z
M 5575 5278 
L 6031 5278 
L 6031 59 
Q 6031 -747 5356 -759 
Q 5094 -766 4544 -747 
Q 4519 -491 4456 -228 
Q 4925 -278 5188 -278 
Q 5575 -278 5575 209 
L 5575 5278 
z
M 5000 628 
L 4563 628 
L 4563 4684 
L 5000 4684 
L 5000 628 
z
M 2844 3197 
L 3269 3197 
L 3269 2816 
Q 3794 2966 4106 3072 
L 4263 2684 
Q 4088 2641 3269 2428 
L 3269 2053 
Q 3269 1816 3444 1816 
L 3569 1816 
Q 3781 1816 3831 2022 
Q 3875 2222 3919 2509 
Q 4138 2409 4331 2334 
Q 4275 2084 4225 1897 
Q 4094 1391 3638 1391 
L 3344 1391 
Q 2844 1391 2844 1991 
L 2844 3197 
z
M 75 1866 
Q 600 1941 1063 2022 
L 1063 2472 
L 163 2472 
L 163 2872 
L 1063 2872 
L 1063 3197 
L 1488 3197 
L 1488 1347 
L 1063 1347 
L 1063 1634 
Q 625 1547 194 1459 
L 75 1866 
z
" transform="scale(0.015625)"/>
       <path id="MicrosoftYaHei-4f59" d="M 325 1972 
L 2994 1972 
L 2994 2841 
L 1463 2841 
L 1463 3153 
Q 969 2816 394 2509 
Q 263 2722 81 2966 
Q 2013 3928 2994 5278 
L 3656 5278 
L 3531 5122 
Q 4575 3772 6313 3078 
Q 6119 2809 5981 2591 
Q 5425 2859 4931 3191 
L 4931 2841 
L 3500 2841 
L 3500 1972 
L 6075 1972 
L 6075 1503 
L 3500 1503 
L 3500 59 
Q 3500 -803 2656 -803 
Q 2363 -803 1869 -791 
Q 1838 -553 1788 -272 
Q 2256 -322 2563 -328 
Q 2994 -341 2994 109 
L 2994 1503 
L 325 1503 
L 325 1972 
z
M 3219 4741 
Q 2619 3978 1681 3309 
L 4756 3309 
Q 3894 3922 3219 4741 
z
M 4481 1234 
Q 5469 472 6156 -134 
L 5769 -534 
Q 5000 203 4138 897 
L 4481 1234 
z
M 1644 1241 
L 2094 941 
Q 1331 28 656 -572 
Q 481 -416 238 -228 
Q 1031 397 1644 1241 
z
" transform="scale(0.015625)"/>
       <path id="MicrosoftYaHei-80fd" d="M 950 -759 
L 463 -759 
L 463 2928 
L 3000 2928 
L 3000 -28 
Q 3000 -703 2375 -703 
Q 2100 -709 1669 -709 
Q 1638 -516 1575 -234 
Q 1969 -266 2206 -266 
Q 2513 -266 2513 53 
L 2513 572 
L 950 572 
L 950 -759 
z
M 3606 2253 
L 4094 2253 
L 4094 1222 
Q 4981 1553 5950 2091 
L 6231 1659 
Q 5209 1122 4094 706 
L 4094 166 
Q 4094 -228 4400 -228 
L 5319 -228 
Q 5638 -228 5688 78 
Q 5731 353 5763 897 
Q 6000 803 6250 722 
Q 6200 172 6144 -109 
Q 6063 -659 5363 -659 
L 4319 -659 
Q 3606 -659 3606 72 
L 3606 2253 
z
M 3619 5303 
L 4106 5303 
L 4106 4231 
Q 4966 4572 5813 5053 
L 6094 4622 
Q 5119 4128 4106 3719 
L 4106 3359 
Q 4106 2941 4438 2941 
L 5231 2941 
Q 5625 2941 5675 3266 
Q 5719 3534 5750 4047 
Q 5988 3953 6238 3866 
Q 6188 3366 6131 3053 
Q 6038 2509 5288 2509 
L 4375 2509 
Q 3619 2509 3619 3259 
L 3619 5303 
z
M 2463 4772 
Q 3031 4034 3450 3353 
Q 3213 3191 3019 3066 
Q 2897 3281 2759 3506 
Q 1231 3394 313 3303 
L 113 3828 
Q 388 3978 719 4391 
Q 1063 4841 1394 5397 
L 1888 5216 
Q 1369 4466 794 3797 
Q 1731 3856 2497 3919 
Q 2300 4216 2075 4528 
L 2463 4772 
z
M 950 947 
L 2513 947 
L 2513 1553 
L 950 1553 
L 950 947 
z
M 2513 2528 
L 950 2528 
L 950 1928 
L 2513 1928 
L 2513 2528 
z
" transform="scale(0.015625)"/>
       <path id="MicrosoftYaHei-91cf" d="M 113 -278 
L 2981 -278 
L 2981 78 
L 475 78 
L 475 403 
L 2981 403 
L 2981 759 
L 1494 759 
L 1494 597 
L 1069 597 
L 1069 2516 
L 5350 2516 
L 5350 597 
L 4925 597 
L 4925 759 
L 3419 759 
L 3419 403 
L 5931 403 
L 5931 78 
L 3419 78 
L 3419 -278 
L 6288 -278 
L 6288 -616 
L 113 -616 
L 113 -278 
z
M 1119 5072 
L 5306 5072 
L 5306 3284 
L 4881 3284 
L 4881 3453 
L 1544 3453 
L 1544 3284 
L 1119 3284 
L 1119 5072 
z
M 163 3153 
L 6263 3153 
L 6263 2816 
L 163 2816 
L 163 3153 
z
M 1544 3778 
L 4881 3778 
L 4881 4116 
L 1544 4116 
L 1544 3778 
z
M 4881 4747 
L 1544 4747 
L 1544 4416 
L 4881 4416 
L 4881 4747 
z
M 3419 1084 
L 4925 1084 
L 4925 1491 
L 3419 1491 
L 3419 1084 
z
M 1494 1084 
L 2981 1084 
L 2981 1491 
L 1494 1491 
L 1494 1084 
z
M 4925 2191 
L 3419 2191 
L 3419 1791 
L 4925 1791 
L 4925 2191 
z
M 1494 1791 
L 2981 1791 
L 2981 2191 
L 1494 2191 
L 1494 1791 
z
" transform="scale(0.015625)"/>
       <path id="MicrosoftYaHei-5355" d="M 125 909 
L 2956 909 
L 2956 1616 
L 1225 1616 
L 1225 1322 
L 750 1322 
L 750 4353 
L 2047 4353 
Q 1747 4703 1400 5072 
L 1756 5366 
Q 2219 4922 2569 4547 
L 2338 4353 
L 3803 4353 
Q 4147 4809 4500 5347 
L 5000 5078 
Q 4678 4688 4378 4353 
L 5656 4353 
L 5656 1322 
L 5181 1322 
L 5181 1616 
L 3444 1616 
L 3444 909 
L 6275 909 
L 6275 459 
L 3444 459 
L 3444 -859 
L 2956 -859 
L 2956 459 
L 125 459 
L 125 909 
z
M 3444 2053 
L 5181 2053 
L 5181 2778 
L 3444 2778 
L 3444 2053 
z
M 1225 2053 
L 2956 2053 
L 2956 2778 
L 1225 2778 
L 1225 2053 
z
M 5181 3916 
L 3444 3916 
L 3444 3203 
L 5181 3203 
L 5181 3916 
z
M 1225 3203 
L 2956 3203 
L 2956 3916 
L 1225 3916 
L 1225 3203 
z
" transform="scale(0.015625)"/>
       <path id="MicrosoftYaHei-4f4d" d="M 1788 -59 
L 4228 -59 
Q 4678 1144 5269 3372 
L 5831 3203 
Q 5453 2044 4756 -59 
L 6319 -59 
L 6319 -522 
L 1788 -522 
L 1788 -59 
z
M 81 2291 
Q 975 3641 1431 5322 
L 1963 5191 
Q 1703 4397 1406 3709 
L 1406 -853 
L 938 -853 
L 938 2731 
Q 644 2181 319 1716 
Q 231 1953 81 2291 
z
M 1919 4191 
L 4122 4191 
Q 3844 4659 3506 5059 
L 3931 5353 
Q 4206 5034 4613 4497 
L 4150 4191 
L 6206 4191 
L 6206 3728 
L 1919 3728 
L 1919 4191 
z
M 2769 3309 
Q 3181 2184 3669 584 
L 3150 434 
Q 2725 1966 2294 3147 
L 2769 3309 
z
" transform="scale(0.015625)"/>
       <path id="MicrosoftYaHei-45" d="M 3228 0 
L 625 0 
L 625 4841 
L 3119 4841 
L 3119 4284 
L 1250 4284 
L 1250 2734 
L 2981 2734 
L 2981 2181 
L 1250 2181 
L 1250 553 
L 3228 553 
L 3228 0 
z
" transform="scale(0.015625)"/>
       <path id="MicrosoftYaHei-5f" d="M 2869 -1634 
L 0 -1634 
L 0 -1231 
L 2869 -1231 
L 2869 -1634 
z
" transform="scale(0.015625)"/>
       <path id="MicrosoftYaHei-6d" d="M 5522 0 
L 4909 0 
L 4909 1984 
Q 4909 2547 4734 2789 
Q 4559 3031 4159 3031 
Q 3822 3031 3581 2715 
Q 3341 2400 3341 1969 
L 3341 0 
L 2728 0 
L 2728 2047 
Q 2728 3031 1969 3031 
Q 1619 3031 1389 2731 
Q 1159 2431 1159 1966 
L 1159 0 
L 547 0 
L 547 3456 
L 1159 3456 
L 1159 2909 
L 1172 2909 
Q 1541 3538 2250 3538 
Q 2597 3538 2862 3347 
Q 3128 3156 3231 2831 
Q 3616 3538 4381 3538 
Q 5522 3538 5522 2131 
L 5522 0 
z
" transform="scale(0.015625)"/>
       <path id="MicrosoftYaHei-61" d="M 628 3216 
Q 1144 3538 1819 3538 
Q 3069 3538 3069 2225 
L 3069 0 
L 2463 0 
L 2463 534 
L 2447 534 
Q 2088 -81 1388 -81 
Q 884 -81 587 191 
Q 291 463 291 925 
Q 291 1894 1438 2053 
L 2463 2197 
Q 2463 3044 1763 3044 
Q 1141 3044 628 2625 
L 628 3216 
z
M 1653 1625 
Q 1228 1569 1067 1412 
Q 906 1256 906 975 
Q 906 728 1081 572 
Q 1256 416 1544 416 
Q 1944 416 2203 697 
Q 2463 978 2463 1403 
L 2463 1734 
L 1653 1625 
z
" transform="scale(0.015625)"/>
       <path id="MicrosoftYaHei-78" d="M 3163 3456 
L 2006 1716 
L 3147 0 
L 2434 0 
L 1775 1100 
Q 1722 1188 1625 1369 
L 1613 1369 
Q 1609 1350 1456 1100 
L 784 0 
L 81 0 
L 1256 1697 
L 134 3456 
L 847 3456 
L 1494 2300 
Q 1553 2194 1638 2025 
L 1650 2025 
L 2491 3456 
L 3163 3456 
z
" transform="scale(0.015625)"/>
       <path id="MicrosoftYaHei-3d" d="M 3972 2497 
L 788 2497 
L 788 2969 
L 3972 2969 
L 3972 2497 
z
M 3972 1053 
L 788 1053 
L 788 1525 
L 3972 1525 
L 3972 1053 
z
" transform="scale(0.015625)"/>
       <path id="MicrosoftYaHei-2e" d="M 372 322 
Q 372 491 487 606 
Q 603 722 775 722 
Q 950 722 1065 605 
Q 1181 488 1181 322 
Q 1181 159 1065 42 
Q 950 -75 772 -75 
Q 600 -75 486 42 
Q 372 159 372 322 
z
" transform="scale(0.015625)"/>
      </defs>
      <use xlink:href="#MicrosoftYaHei-5269"/>
      <use xlink:href="#MicrosoftYaHei-4f59" transform="translate(100 0)"/>
      <use xlink:href="#MicrosoftYaHei-80fd" transform="translate(200 0)"/>
      <use xlink:href="#MicrosoftYaHei-91cf" transform="translate(300 0)"/>
      <use xlink:href="#MicrosoftYaHei-20" transform="translate(400 0)"/>
      <use xlink:href="#MicrosoftYaHei-28" transform="translate(429.589844 0)"/>
      <use xlink:href="#MicrosoftYaHei-5355" transform="translate(462.988281 0)"/>
      <use xlink:href="#MicrosoftYaHei-4f4d" transform="translate(562.988281 0)"/>
      <use xlink:href="#MicrosoftYaHei-20" transform="translate(662.988281 0)"/>
      <use xlink:href="#MicrosoftYaHei-45" transform="translate(692.578125 0)"/>
      <use xlink:href="#MicrosoftYaHei-5f" transform="translate(747.558594 0)"/>
      <use xlink:href="#MicrosoftYaHei-6d" transform="translate(792.382812 0)"/>
      <use xlink:href="#MicrosoftYaHei-61" transform="translate(886.083984 0)"/>
      <use xlink:href="#MicrosoftYaHei-78" transform="translate(941.357422 0)"/>
      <use xlink:href="#MicrosoftYaHei-3d" transform="translate(992.041016 0)"/>
      <use xlink:href="#MicrosoftYaHei-35" transform="translate(1066.210938 0)"/>
      <use xlink:href="#MicrosoftYaHei-35" transform="translate(1124.853516 0)"/>
      <use xlink:href="#MicrosoftYaHei-30" transform="translate(1183.496094 0)"/>
      <use xlink:href="#MicrosoftYaHei-30" transform="translate(1242.138672 0)"/>
      <use xlink:href="#MicrosoftYaHei-2e" transform="translate(1300.78125 0)"/>
      <use xlink:href="#MicrosoftYaHei-30" transform="translate(1324.853516 0)"/>
      <use xlink:href="#MicrosoftYaHei-29" transform="translate(1383.496094 0)"/>
     </g>
    </g>
   </g>
   <g id="line2d_29">
    <path d="M 79.897898 45.841818 
L 538.280852 45.841818 
L 538.280852 45.841818 
" clip-path="url(#p232a2f972b)" style="fill: none; stroke: #ff0029; stroke-opacity: 0.8; stroke-width: 1.5; stroke-linecap: square"/>
   </g>
   <g id="line2d_30">
    <path d="M 79.897898 45.84262 
L 87.794464 45.952007 
L 91.105928 45.99184 
L 93.653207 46.098039 
L 112.120984 48.775479 
L 113.90408 48.860109 
L 115.432447 49.188796 
L 118.743911 49.965381 
L 119.126003 50.022125 
L 119.762823 50.194894 
L 120.399643 50.320527 
L 120.909098 50.440297 
L 123.456378 50.509738 
L 124.093198 50.716158 
L 124.857382 50.859297 
L 125.239474 51.003313 
L 125.74893 51.152367 
L 132.753948 53.164633 
L 134.027588 53.250518 
L 134.664408 53.477602 
L 136.574868 54.042492 
L 136.95696 54.210068 
L 137.339052 54.295918 
L 137.721143 54.468234 
L 138.103235 54.554737 
L 138.867419 54.722225 
L 142.560975 54.819001 
L 142.943067 55.003357 
L 145.362982 55.061926 
L 145.745074 55.23596 
L 146.127166 55.333976 
L 146.509258 55.525257 
L 146.89135 55.623928 
L 147.273442 55.823732 
L 147.655534 55.932311 
L 148.037626 56.132832 
L 148.419718 56.275216 
L 149.056537 56.551619 
L 150.712269 56.964462 
L 159.500384 57.066575 
L 159.882476 57.195639 
L 160.519295 57.476847 
L 161.792935 57.67159 
L 162.175027 57.773394 
L 164.594943 57.881186 
L 164.849671 57.881186 
L 165.231763 58.121628 
L 165.359127 58.121628 
L 165.741218 58.361597 
L 166.12331 58.471602 
L 166.378038 58.546539 
L 169.94423 58.629139 
L 170.453686 58.788428 
L 170.835778 59.036389 
L 171.217869 59.036389 
L 171.599961 59.286336 
L 171.854689 59.4142 
L 172.109417 59.54742 
L 173.383057 60.209918 
L 173.765149 60.414794 
L 173.892513 60.414794 
L 174.147241 60.541945 
L 174.274605 60.541945 
L 174.656697 60.798793 
L 174.784061 60.803158 
L 175.166153 61.060078 
L 175.293517 61.060078 
L 175.675609 61.321237 
L 175.930337 61.457703 
L 177.076612 62.055439 
L 177.713432 62.42508 
L 177.840796 62.430941 
L 178.222888 62.692878 
L 178.350252 62.692878 
L 178.732344 62.961073 
L 178.859708 62.961073 
L 179.2418 63.230604 
L 179.369164 63.23993 
L 179.751256 63.501963 
L 180.133348 63.677642 
L 180.51544 63.907977 
L 180.642804 63.907977 
L 181.024896 64.113521 
L 182.935355 64.223461 
L 183.317447 64.465274 
L 183.699539 64.642069 
L 184.336359 65.045157 
L 184.973179 65.378994 
L 185.355271 65.622025 
L 185.482635 65.622025 
L 185.864727 65.907475 
L 185.992091 65.907475 
L 186.374183 66.191307 
L 186.501547 66.191307 
L 186.756275 66.333843 
L 187.138367 66.333843 
L 187.520459 66.612371 
L 187.902551 66.781598 
L 188.157278 66.934499 
L 190.067738 66.934499 
L 190.44983 67.221142 
L 190.577194 67.221142 
L 190.959286 67.519772 
L 191.08665 67.519772 
L 191.468742 67.804188 
L 191.596106 67.804188 
L 191.978198 68.089879 
L 192.487654 68.385324 
L 196.945393 70.671271 
L 198.091669 70.769443 
L 198.346397 70.899833 
L 199.874764 70.979043 
L 201.65786 72.082951 
L 202.29468 72.479638 
L 202.422044 72.479638 
L 202.804136 72.778187 
L 202.9315 72.785275 
L 203.313592 73.075651 
L 203.56832 73.234408 
L 204.587232 73.603067 
L 206.879783 73.636849 
L 207.261875 73.927077 
L 207.898695 74.290651 
L 208.535515 74.743783 
L 209.427063 75.304056 
L 210.063883 75.719487 
L 210.445975 75.915074 
L 210.828066 76.193671 
L 211.210158 76.38194 
L 211.59225 76.633639 
L 211.719614 76.643439 
L 211.974342 76.779461 
L 212.483798 76.779461 
L 212.86589 77.070665 
L 213.247982 77.220276 
L 213.50271 77.37011 
L 214.648986 77.37011 
L 215.031078 77.686411 
L 215.158442 77.686411 
L 215.540534 78.002001 
L 216.559445 78.196322 
L 217.323629 78.69167 
L 217.705721 78.852658 
L 218.087813 79.166359 
L 218.215177 79.166359 
L 218.597269 79.481018 
L 218.724633 79.481018 
L 219.106725 79.796345 
L 219.234089 79.796345 
L 219.616181 80.112572 
L 219.743545 80.112572 
L 220.125637 80.430191 
L 220.253001 80.430191 
L 220.635093 80.749504 
L 223.309736 80.749504 
L 223.564464 80.889659 
L 223.691828 80.889659 
L 224.07392 81.177407 
L 227.25802 81.177407 
L 227.640111 81.513071 
L 227.767475 81.513071 
L 228.149567 81.851367 
L 228.531659 82.06396 
L 228.786387 82.176013 
L 229.550571 82.176013 
L 229.932663 82.486151 
L 230.060027 82.493708 
L 230.442119 82.820003 
L 230.569483 82.820003 
L 230.951575 83.1604 
L 231.078939 83.1604 
L 231.461031 83.490975 
L 232.989399 83.490975 
L 233.498854 83.843362 
L 233.880946 84.047597 
L 234.263038 84.367748 
L 234.390402 84.367748 
L 234.772494 84.710633 
L 234.899858 84.710633 
L 235.28195 85.052364 
L 235.409314 85.052364 
L 235.791406 85.393002 
L 235.91877 85.393002 
L 236.300862 85.736275 
L 236.428226 85.736275 
L 236.810318 86.079379 
L 236.937682 86.079379 
L 237.319774 86.432337 
L 237.574502 86.628917 
L 238.593414 87.643226 
L 238.720778 87.643226 
L 239.102869 87.97716 
L 239.230233 87.97716 
L 239.612325 88.31191 
L 239.739689 88.31191 
L 240.121781 88.643321 
L 240.249145 88.643321 
L 240.503873 88.812485 
L 240.885965 88.812485 
L 241.140693 88.981633 
L 241.268057 88.981633 
L 241.650149 89.32728 
L 241.777513 89.32728 
L 242.159605 89.67253 
L 242.286969 89.67253 
L 242.669061 90.016704 
L 242.796425 90.016704 
L 243.178517 90.359904 
L 243.305881 90.359904 
L 243.560609 90.531753 
L 244.834248 90.531753 
L 245.21634 90.863012 
L 245.343704 90.863012 
L 245.725796 91.210439 
L 245.85316 91.210439 
L 246.235252 91.55665 
L 246.362616 91.55665 
L 246.744708 91.909052 
L 246.872072 91.935713 
L 247.254164 92.270604 
L 247.76362 92.662946 
L 249.419352 93.808548 
L 256.551734 93.808548 
L 256.933826 94.16614 
L 257.06119 94.16875 
L 257.443282 94.523801 
L 257.570646 94.523801 
L 257.952738 94.882048 
L 258.080102 94.882048 
L 258.462194 95.241197 
L 258.589558 95.261079 
L 258.97165 95.602372 
L 268.778676 95.602372 
L 269.160768 95.975641 
L 269.288132 95.975641 
L 269.54286 96.162351 
L 269.670224 96.162351 
L 270.052316 96.525463 
L 270.17968 96.525463 
L 270.561772 96.894885 
L 270.689136 96.894885 
L 271.071228 97.267591 
L 271.198592 97.267591 
L 271.580684 97.627405 
L 271.708048 97.653056 
L 272.09014 97.991506 
L 272.217504 98.018091 
L 272.599595 98.322315 
L 273.363779 98.735512 
L 273.745871 99.106867 
L 273.873235 99.106867 
L 274.255327 99.470753 
L 275.528967 99.470753 
L 275.911059 99.845287 
L 276.038423 99.850647 
L 276.420515 100.2182 
L 276.547879 100.229671 
L 276.929971 100.595924 
L 277.057335 100.595924 
L 277.439427 100.972115 
L 277.566791 100.972115 
L 277.948883 101.349501 
L 278.076247 101.349501 
L 278.458338 101.725664 
L 279.47725 101.725664 
L 279.859342 102.108638 
L 280.241434 102.395231 
L 280.75089 102.821669 
L 282.406622 103.838703 
L 286.736997 103.838703 
L 287.119089 104.17407 
L 287.246453 104.17407 
L 287.628545 104.554345 
L 287.755909 104.554345 
L 288.138001 104.942513 
L 292.468376 104.942513 
L 292.850468 105.318158 
L 292.977832 105.340385 
L 293.359924 105.687948 
L 293.487288 105.687948 
L 293.742016 105.873384 
L 295.907203 105.873384 
L 296.289295 106.275546 
L 296.416659 106.276647 
L 296.798751 106.681893 
L 297.180843 106.96654 
L 297.817663 107.532425 
L 298.836575 108.11329 
L 298.963939 108.11329 
L 299.218667 108.295731 
L 299.728123 108.295731 
L 300.110215 108.695289 
L 300.237579 108.696559 
L 300.492307 108.895254 
L 302.020674 108.895254 
L 302.402766 109.242076 
L 302.784858 109.572325 
L 303.549042 110.265822 
L 304.058498 110.463785 
L 304.313226 110.463785 
L 304.695318 110.854354 
L 304.822682 110.854354 
L 305.204774 111.214204 
L 305.332138 111.223902 
L 305.71423 111.606105 
L 305.841594 111.606105 
L 306.223686 111.9996 
L 306.351049 111.9996 
L 306.733141 112.391865 
L 306.987869 112.391865 
L 307.369961 112.782157 
L 307.497325 112.790638 
L 307.879417 113.175583 
L 308.261509 113.215438 
L 310.171969 113.215438 
L 310.554061 113.602049 
L 310.936153 113.913995 
L 311.827701 114.689138 
L 314.502344 116.653797 
L 318.450627 116.653797 
L 318.832719 117.048514 
L 319.087447 117.261824 
L 319.469539 117.545352 
L 320.361087 118.421097 
L 321.125271 119.041802 
L 322.653639 120.188959 
L 324.691462 121.514069 
L 329.913385 121.514069 
L 330.295477 121.877558 
L 335.5174 121.877558 
L 335.772128 122.077635 
L 336.15422 122.470827 
L 336.536312 122.470827 
L 336.918404 122.870324 
L 337.045768 122.870324 
L 337.42786 123.266332 
L 337.555224 123.305319 
L 337.937316 123.667361 
L 338.06468 123.667361 
L 338.446772 124.064744 
L 338.574136 124.064744 
L 338.828864 124.263244 
L 342.267691 124.263244 
L 342.649783 124.665749 
L 342.777147 124.674974 
L 343.159239 125.073794 
L 343.541331 125.389743 
L 343.923423 125.741368 
L 344.050787 125.761598 
L 344.432879 126.147852 
L 344.560243 126.168784 
L 344.942335 126.552658 
L 345.069699 126.552658 
L 345.451791 126.954065 
L 345.579155 126.978165 
L 345.961246 127.357602 
L 346.08861 127.391958 
L 346.470702 127.755989 
L 346.598066 127.755989 
L 346.980158 128.15325 
L 347.107522 128.15325 
L 347.36225 128.351772 
L 348.126434 128.351772 
L 348.508526 128.747797 
L 348.63589 128.747797 
L 349.017982 129.142339 
L 350.164258 129.142339 
L 350.54635 129.564955 
L 351.692625 130.419553 
L 352.074717 130.614675 
L 352.456809 131.00565 
L 352.584173 131.00565 
L 352.966265 131.398088 
L 353.093629 131.401097 
L 353.475721 131.792465 
L 353.603085 131.792465 
L 353.985177 132.182714 
L 354.112541 132.182714 
L 354.494633 132.574814 
L 354.621997 132.574814 
L 355.004089 132.966041 
L 355.131453 132.966041 
L 355.513545 133.356565 
L 356.150365 133.356565 
L 356.532457 133.757752 
L 356.659821 133.795161 
L 357.041912 134.153097 
L 358.697644 134.153097 
L 359.079736 134.48905 
L 359.2071 134.513099 
L 359.589192 134.861723 
L 359.971284 135.141877 
L 360.353376 135.446976 
L 360.48074 135.446976 
L 360.862832 135.831559 
L 360.990196 135.831559 
L 361.372288 136.214557 
L 361.499652 136.214557 
L 361.881744 136.597633 
L 362.009108 136.597633 
L 362.3912 136.979761 
L 366.339483 137.047587 
L 366.721575 137.373205 
L 366.848939 137.373205 
L 367.231031 137.761297 
L 367.358395 137.761297 
L 367.740487 138.148809 
L 367.867851 138.148809 
L 368.249942 138.532541 
L 368.377306 138.532541 
L 368.632034 138.724801 
L 372.835046 138.724801 
L 373.217138 139.11125 
L 373.471866 139.11125 
L 373.981321 139.503442 
L 374.363413 139.707232 
L 374.745505 140.074699 
L 374.872869 140.095789 
L 375.254961 140.472012 
L 375.637053 140.772196 
L 376.273873 141.268587 
L 377.420149 142.059159 
L 377.802241 142.376133 
L 377.929605 142.376133 
L 378.184333 142.565389 
L 378.948517 142.565389 
L 379.203245 142.753402 
L 383.024164 142.753402 
L 383.406256 143.132134 
L 383.788348 143.415469 
L 384.679896 144.141652 
L 385.826171 144.992829 
L 386.335627 145.420255 
L 386.717719 145.731396 
L 386.845083 145.735553 
L 387.227175 146.113765 
L 387.354539 146.113765 
L 387.736631 146.495588 
L 387.863995 146.522669 
L 388.246087 146.887688 
L 388.373451 146.911583 
L 388.755543 147.277122 
L 389.137635 147.490039 
L 389.519727 147.870052 
L 389.647091 147.870052 
L 390.029183 148.251091 
L 390.156547 148.251091 
L 390.538639 148.630814 
L 390.666003 148.637626 
L 391.048094 149.015877 
L 392.321734 149.436455 
L 392.449098 149.436455 
L 392.703826 149.669219 
L 393.085918 149.975778 
L 393.46801 150.169478 
L 393.850102 150.528865 
L 394.614286 150.528865 
L 394.996378 150.821124 
L 396.142654 151.525738 
L 396.524745 151.881478 
L 396.652109 151.881478 
L 397.034201 152.259487 
L 397.161565 152.298551 
L 397.543657 152.664377 
L 397.925749 152.879352 
L 398.307841 153.208015 
L 398.689933 153.422928 
L 399.072025 153.724771 
L 399.199389 153.724771 
L 399.581481 154.093004 
L 402.12876 154.093004 
L 402.510852 154.453306 
L 402.638216 154.469526 
L 403.020308 154.825281 
L 403.4024 155.089267 
L 404.03922 155.567459 
L 404.421312 155.769059 
L 404.803404 156.043726 
L 405.185496 156.231002 
L 405.567588 156.565901 
L 405.694952 156.565901 
L 406.077044 156.93217 
L 406.204408 156.93217 
L 406.5865 157.297937 
L 406.713864 157.297937 
L 406.968592 157.480087 
L 407.22332 157.480087 
L 407.605411 157.842741 
L 408.242231 157.842741 
L 408.496959 158.025159 
L 412.954699 158.025159 
L 413.33679 158.393275 
L 413.464154 158.401786 
L 413.846246 158.764999 
L 414.100974 158.954254 
L 414.737794 159.385392 
L 415.119886 159.661054 
L 418.43135 159.661054 
L 418.813442 160.026882 
L 418.940805 160.039236 
L 419.322897 160.392332 
L 419.450261 160.417509 
L 419.832353 160.751593 
L 419.959717 160.751593 
L 420.214445 160.916676 
L 424.290093 160.916676 
L 424.672184 161.252057 
L 425.309004 161.724954 
L 426.073188 162.342942 
L 427.474192 163.331739 
L 427.601556 163.343619 
L 427.983648 163.691313 
L 428.111012 163.691313 
L 428.493104 164.050725 
L 429.00256 164.050725 
L 429.384652 164.411412 
L 429.512016 164.411412 
L 429.894108 164.771869 
L 430.021472 164.771869 
L 430.403563 165.131077 
L 430.530927 165.131077 
L 430.913019 165.481919 
L 431.040383 165.481919 
L 431.422475 165.822321 
L 431.549839 165.852671 
L 431.804567 166.068292 
L 437.408582 166.094356 
L 437.790674 166.434831 
L 437.918038 166.462097 
L 438.30013 166.798293 
L 438.554858 166.985745 
L 439.446406 167.608063 
L 439.828498 167.91247 
L 439.955862 167.930641 
L 440.337954 168.261738 
L 440.465318 168.261738 
L 440.84741 168.61635 
L 440.974774 168.620037 
L 441.356865 168.973447 
L 443.776781 168.973447 
L 444.158873 169.325509 
L 444.286237 169.325509 
L 444.668329 169.681836 
L 444.795693 169.681836 
L 445.050421 169.858981 
L 446.069333 169.858981 
L 446.451425 170.197576 
L 446.578789 170.197576 
L 446.960881 170.519068 
L 447.088244 170.519068 
L 447.470336 170.865239 
L 447.5977 170.876064 
L 447.979792 171.215425 
L 448.107156 171.215425 
L 448.489248 171.567346 
L 448.616612 171.567346 
L 448.87134 171.742625 
L 451.928076 171.742625 
L 452.310168 172.056284 
L 452.437532 172.056284 
L 452.819623 172.394927 
L 452.946987 172.394927 
L 453.329079 172.731879 
L 453.583807 172.902594 
L 453.965899 173.125646 
L 454.602719 173.589 
L 454.730083 173.594246 
L 455.112175 173.93795 
L 456.131087 173.93795 
L 456.513179 174.273892 
L 456.767907 174.273892 
L 457.149999 174.614811 
L 457.404727 174.796021 
L 458.041547 175.207042 
L 458.423638 175.523046 
L 458.551002 175.523046 
L 458.80573 175.694679 
L 459.187822 175.987409 
L 459.569914 176.130645 
L 459.952006 176.429374 
L 460.461462 176.759604 
L 461.607738 177.522477 
L 465.810749 177.522477 
L 466.192841 177.865404 
L 467.848573 177.865404 
L 468.230665 178.208928 
L 468.358029 178.208928 
L 468.740121 178.55098 
L 468.867485 178.55098 
L 469.249577 178.89153 
L 469.376941 178.89153 
L 469.759032 179.231427 
L 469.886396 179.231427 
L 470.268488 179.572243 
L 470.523216 179.725605 
L 470.905308 179.964141 
L 472.56104 181.165705 
L 474.598864 182.425221 
L 474.980956 182.607722 
L 475.617775 183.039811 
L 475.745139 183.039811 
L 476.127231 183.370722 
L 476.254595 183.370722 
L 476.636687 183.70072 
L 476.764051 183.70072 
L 477.146143 184.030149 
L 477.273507 184.030149 
L 477.655599 184.35878 
L 477.782963 184.35878 
L 478.165055 184.686988 
L 478.292419 184.686988 
L 478.674511 185.014783 
L 478.801875 185.014783 
L 479.183967 185.341238 
L 479.438695 185.451013 
L 479.948151 185.714543 
L 480.330243 186.009834 
L 480.457607 186.009834 
L 480.839698 186.332783 
L 480.967062 186.332783 
L 481.349154 186.654528 
L 481.476518 186.654528 
L 481.85861 186.975149 
L 481.985974 186.975149 
L 482.240702 187.13503 
L 485.297438 187.13503 
L 485.67953 187.457221 
L 486.061622 187.675708 
L 486.698441 188.080454 
L 486.825805 188.080454 
L 487.207897 188.401004 
L 487.717353 188.401004 
L 487.972081 188.538364 
L 488.354173 188.538364 
L 488.736265 188.805235 
L 488.863629 188.805235 
L 489.118357 188.931912 
L 491.156181 188.931912 
L 491.538273 189.252115 
L 491.665637 189.277598 
L 492.047728 189.564209 
L 492.42982 189.711024 
L 492.811912 189.945663 
L 493.194004 190.178215 
L 493.958188 190.787138 
L 494.34028 190.940608 
L 494.722372 191.241273 
L 494.849736 191.241273 
L 495.231828 191.550859 
L 495.359192 191.550859 
L 495.741284 191.860083 
L 495.868648 191.860083 
L 496.123376 192.015212 
L 497.906471 192.015212 
L 498.288563 192.327433 
L 498.415927 192.327433 
L 498.798019 192.641961 
L 499.180111 192.813133 
L 499.562203 193.111752 
L 499.689567 193.111752 
L 500.071659 193.421453 
L 500.199023 193.421453 
L 500.581115 193.730251 
L 500.708479 193.730251 
L 501.090571 194.037941 
L 501.217935 194.037941 
L 501.600027 194.336163 
L 501.727391 194.340027 
L 502.109483 194.6304 
L 506.82195 194.6304 
L 507.204042 194.922469 
L 507.331406 194.925338 
L 507.713498 195.228498 
L 507.840862 195.228498 
L 508.222954 195.53494 
L 508.350318 195.53494 
L 508.73241 195.840644 
L 508.859774 195.854383 
L 509.241865 196.149957 
L 509.496593 196.307913 
L 509.878685 196.56501 
L 510.515505 196.955406 
L 510.897597 197.206797 
L 511.024961 197.206797 
L 511.407053 197.507505 
L 511.534417 197.507505 
L 511.916509 197.806301 
L 515.737428 197.806301 
L 516.11952 198.078382 
L 517.011068 198.078382 
L 517.39316 198.366897 
L 517.520524 198.366897 
L 517.902616 198.668109 
L 518.02998 198.668109 
L 518.412072 198.964033 
L 518.539436 198.964033 
L 518.921528 199.264606 
L 519.30362 199.45418 
L 519.685712 199.717805 
L 519.813076 199.717805 
L 520.195167 200.011935 
L 520.322531 200.011935 
L 520.577259 200.159877 
L 524.270815 200.159877 
L 524.652907 200.440282 
L 524.780271 200.458975 
L 525.162363 200.748982 
L 525.799182 201.144487 
L 526.436002 201.545239 
L 527.32755 202.080875 
L 527.709642 202.253005 
L 528.091734 202.5101 
L 532.549473 202.5101 
L 532.931565 202.799375 
L 533.058929 202.799375 
L 533.441021 203.094526 
L 533.568385 203.094526 
L 533.950477 203.389009 
L 534.077841 203.389009 
L 534.332569 203.53571 
L 536.497757 203.53571 
L 536.752485 203.695359 
L 537.134576 203.695359 
L 537.516668 203.978283 
L 537.89876 204.160815 
L 538.280852 204.429566 
L 538.280852 204.429566 
" clip-path="url(#p232a2f972b)" style="fill: none; stroke: #ff7000; stroke-opacity: 0.8; stroke-width: 1.5; stroke-linecap: square"/>
   </g>
   <g id="line2d_31">
    <path d="M 79.897898 45.841818 
L 316.412804 45.951817 
L 328.512382 45.96711 
L 379.457972 46.077332 
L 390.156547 46.109618 
L 437.153854 46.219498 
L 443.267325 46.228976 
L 478.292419 46.339577 
L 486.953169 46.404509 
L 516.501612 46.514775 
L 524.652907 46.570867 
L 538.280852 46.627592 
L 538.280852 46.627592 
" clip-path="url(#p232a2f972b)" style="fill: none; stroke: #f5ff00; stroke-opacity: 0.8; stroke-width: 1.5; stroke-linecap: square"/>
   </g>
   <g id="line2d_32">
    <path d="M 79.897898 45.841818 
L 174.529333 45.952567 
L 183.954267 45.971841 
L 219.234089 46.081692 
L 226.366472 46.103437 
L 258.33483 46.21396 
L 330.168113 46.572329 
L 344.814971 46.681881 
L 350.291622 46.723651 
L 368.632034 46.831847 
L 373.59923 46.861049 
L 390.666003 46.969908 
L 394.74165 46.998146 
L 410.407419 47.108908 
L 477.782963 47.667205 
L 481.603882 47.728418 
L 496.123376 47.834396 
L 500.326387 47.918905 
L 508.350318 48.02479 
L 511.916509 48.072508 
L 520.322531 48.182925 
L 523.251903 48.207858 
L 538.280852 48.311479 
L 538.280852 48.311479 
" clip-path="url(#p232a2f972b)" style="fill: none; stroke: #5cff00; stroke-opacity: 0.8; stroke-width: 1.5; stroke-linecap: square"/>
   </g>
   <g id="line2d_33">
    <path d="M 79.897898 45.841818 
L 177.586068 45.952369 
L 185.864727 45.984852 
L 215.41317 46.095136 
L 222.16346 46.161525 
L 240.249145 46.270752 
L 247.76362 46.325667 
L 260.117926 46.434655 
L 265.339849 46.516947 
L 277.312063 46.625852 
L 280.878254 46.654781 
L 293.742016 46.763507 
L 298.963939 46.832697 
L 316.412804 46.940412 
L 319.724267 46.989094 
L 334.88058 47.095256 
L 337.937316 47.150187 
L 349.400074 47.257303 
L 356.023001 47.421682 
L 364.301659 47.526489 
L 366.466847 47.54372 
L 370.41513 47.654454 
L 374.236049 47.740446 
L 379.7127 47.847032 
L 382.769436 47.917906 
L 399.199389 48.027828 
L 401.746669 48.076153 
L 408.242231 48.181806 
L 412.063151 48.284399 
L 415.88407 48.319488 
L 423.908001 48.427357 
L 425.81846 48.443466 
L 433.969755 48.551062 
L 437.281218 48.658865 
L 442.375777 48.769973 
L 500.708479 49.801157 
L 503.510486 49.899443 
L 508.605046 50.003851 
L 510.388141 50.015804 
L 513.572241 50.118947 
L 515.100608 50.128749 
L 518.539436 50.236553 
L 521.214079 50.333148 
L 529.747466 50.423208 
L 535.606209 50.525598 
L 537.644032 50.575952 
L 538.280852 50.575952 
L 538.280852 50.575952 
" clip-path="url(#p232a2f972b)" style="fill: none; stroke: #00ff3d; stroke-opacity: 0.8; stroke-width: 1.5; stroke-linecap: square"/>
   </g>
   <g id="line2d_34">
    <path d="M 79.897898 45.841818 
L 89.450196 45.951055 
L 97.092035 46.349694 
L 104.097053 46.992053 
L 105.625421 47.101916 
L 106.516969 47.246979 
L 107.281153 47.361399 
L 108.172701 47.479672 
L 108.809521 47.59838 
L 110.974708 47.688522 
L 112.248348 47.920225 
L 116.833451 48.639536 
L 117.470271 48.780855 
L 121.29119 48.888893 
L 122.055374 49.071372 
L 123.329014 49.337913 
L 123.965834 49.462788 
L 124.602654 49.630262 
L 125.621566 49.691415 
L 126.131022 49.804847 
L 127.532025 50.150662 
L 127.914117 50.214766 
L 128.296209 50.343557 
L 128.678301 50.411619 
L 129.315121 50.602336 
L 129.697213 50.666316 
L 130.334033 50.857906 
L 130.716125 50.92199 
L 131.098217 51.05708 
L 131.480309 51.125063 
L 131.8624 51.260918 
L 132.49922 51.400957 
L 133.008676 51.562121 
L 134.282316 51.961085 
L 136.447504 52.579792 
L 136.829596 52.65367 
L 137.211688 52.802787 
L 138.230599 52.876797 
L 138.612691 53.026042 
L 138.994783 53.103245 
L 139.376875 53.25885 
L 140.013695 53.449384 
L 140.905243 53.760631 
L 141.796791 54.00628 
L 142.943067 54.38722 
L 143.325158 54.483923 
L 143.961978 54.737236 
L 144.598798 54.959844 
L 146.25453 55.523781 
L 146.636622 55.610748 
L 147.018714 55.784331 
L 148.801809 55.871003 
L 149.183901 56.035724 
L 149.820721 56.244 
L 150.839633 56.664711 
L 151.731181 56.759224 
L 152.113273 56.948135 
L 152.495365 57.06117 
L 153.259549 57.404794 
L 154.533188 57.926403 
L 155.170008 58.146609 
L 155.806828 58.414089 
L 156.18892 58.531235 
L 156.571012 58.717683 
L 156.953104 58.821203 
L 157.335196 59.029454 
L 157.717288 59.133319 
L 158.09938 59.34943 
L 158.481472 59.40267 
L 159.882476 59.461761 
L 162.429755 60.535987 
L 162.811847 60.661386 
L 163.193939 60.852704 
L 163.576031 60.979523 
L 163.958123 61.169048 
L 164.340215 61.277041 
L 164.722307 61.493552 
L 165.868582 61.555041 
L 173.637785 64.968075 
L 174.147241 65.180017 
L 175.166153 65.522437 
L 175.293517 65.522437 
L 175.675609 65.759856 
L 175.802973 65.759856 
L 176.185065 65.983683 
L 176.567157 66.109697 
L 176.949248 66.318292 
L 177.33134 66.43157 
L 177.713432 66.664275 
L 177.840796 66.664275 
L 178.222888 66.908647 
L 178.350252 66.908647 
L 178.732344 67.153964 
L 178.859708 67.153964 
L 179.114436 67.276338 
L 179.623892 67.276338 
L 180.005984 67.512187 
L 180.133348 67.512187 
L 180.51544 67.741339 
L 180.897532 67.891848 
L 181.279624 68.137097 
L 181.661716 68.33416 
L 183.572175 69.314125 
L 184.208995 69.549899 
L 184.591087 69.78292 
L 184.718451 69.786255 
L 185.100543 70.027322 
L 185.227907 70.028662 
L 185.609999 70.280439 
L 185.864727 70.41007 
L 186.246819 70.580447 
L 186.883639 70.921713 
L 187.393095 71.159831 
L 189.303554 71.916069 
L 189.685646 72.161694 
L 190.067738 72.315972 
L 190.44983 72.559745 
L 190.831922 72.692725 
L 191.214014 72.958542 
L 191.596106 73.108086 
L 191.850834 73.219466 
L 193.506566 73.219466 
L 193.888657 73.486162 
L 194.016021 73.489358 
L 194.398113 73.758263 
L 194.525477 73.758263 
L 194.907569 74.028612 
L 195.034933 74.028612 
L 195.417025 74.301631 
L 195.544389 74.301631 
L 195.926481 74.57848 
L 196.308573 74.791543 
L 198.091669 75.924118 
L 198.473761 75.979439 
L 199.237945 75.979439 
L 199.7474 76.394435 
L 199.874764 76.394435 
L 200.129492 76.534363 
L 200.256856 76.534363 
L 200.511584 76.647341 
L 201.912588 76.647341 
L 202.29468 76.928124 
L 202.422044 76.928124 
L 202.804136 77.213035 
L 204.077776 77.213035 
L 204.459868 77.48313 
L 204.84196 77.650973 
L 205.351415 78.000482 
L 206.879783 78.694012 
L 207.389239 78.694012 
L 207.771331 78.944489 
L 207.898695 78.948191 
L 208.280787 79.211192 
L 208.408151 79.211192 
L 208.790243 79.4757 
L 208.917607 79.478646 
L 209.299699 79.760751 
L 209.427063 79.765035 
L 209.809155 80.028637 
L 210.95543 80.092386 
L 212.993254 81.381178 
L 214.266894 82.202597 
L 214.394258 82.202597 
L 214.77635 82.495395 
L 214.903714 82.495395 
L 215.285806 82.788336 
L 216.432081 82.788336 
L 216.814173 83.073646 
L 216.941537 83.073646 
L 217.323629 83.361585 
L 217.450993 83.361585 
L 217.833085 83.654943 
L 217.960449 83.654943 
L 218.342541 83.950771 
L 218.469905 83.950771 
L 218.851997 84.248748 
L 218.979361 84.248748 
L 219.361453 84.54881 
L 219.488817 84.54881 
L 219.870909 84.849377 
L 219.998273 84.849377 
L 220.380365 85.156054 
L 220.507729 85.156054 
L 220.889821 85.463057 
L 221.399277 85.854644 
L 221.908732 86.209844 
L 223.055008 86.872319 
L 223.819192 87.403166 
L 224.965468 88.061157 
L 225.602288 88.459856 
L 226.239108 88.459856 
L 226.6212 88.765892 
L 226.748564 88.765892 
L 227.130656 89.071972 
L 227.25802 89.071972 
L 227.640111 89.37795 
L 227.767475 89.37795 
L 228.149567 89.67833 
L 228.276931 89.67833 
L 228.659023 89.969988 
L 228.786387 89.969988 
L 229.168479 90.280098 
L 229.550571 90.538807 
L 230.696847 91.228314 
L 230.824211 91.228314 
L 231.206303 91.529461 
L 231.333667 91.529461 
L 231.715759 91.833151 
L 231.843123 91.833151 
L 232.225215 92.138396 
L 232.352579 92.143964 
L 232.734671 92.439965 
L 232.862035 92.439965 
L 233.244126 92.728659 
L 233.37149 92.728659 
L 233.753582 93.008566 
L 233.880946 93.008566 
L 234.263038 93.302483 
L 234.390402 93.302483 
L 234.772494 93.607035 
L 234.899858 93.607035 
L 235.28195 93.912154 
L 235.409314 93.912154 
L 235.791406 94.217259 
L 235.91877 94.217259 
L 236.300862 94.522777 
L 236.428226 94.522777 
L 236.810318 94.829838 
L 236.937682 94.829838 
L 237.319774 95.125953 
L 237.447138 95.125953 
L 237.82923 95.400729 
L 238.083958 95.53059 
L 240.249145 96.732583 
L 240.631237 97.041194 
L 240.758601 97.041194 
L 241.140693 97.345193 
L 241.268057 97.345193 
L 241.650149 97.652195 
L 241.777513 97.652195 
L 242.159605 97.958227 
L 242.286969 97.958227 
L 242.669061 98.26511 
L 242.796425 98.26511 
L 243.178517 98.574082 
L 243.305881 98.574082 
L 243.687973 98.882694 
L 243.815337 98.889394 
L 244.197429 99.199437 
L 244.834248 99.577515 
L 245.471068 99.97857 
L 245.598432 99.97857 
L 245.980524 100.285225 
L 246.107888 100.285225 
L 246.362616 100.438682 
L 249.546716 100.467524 
L 249.928808 100.755772 
L 250.310899 100.95599 
L 250.692991 101.239496 
L 251.075083 101.466977 
L 252.093995 102.101727 
L 253.240271 102.778393 
L 253.877091 103.18588 
L 254.259183 103.365228 
L 254.641275 103.631233 
L 255.023367 103.812429 
L 255.405459 104.092757 
L 255.532823 104.095478 
L 255.914914 104.400225 
L 256.042278 104.400225 
L 256.42437 104.707546 
L 256.551734 104.718202 
L 256.933826 105.016374 
L 257.06119 105.016374 
L 257.443282 105.323809 
L 257.570646 105.323809 
L 257.952738 105.63243 
L 258.589558 105.63243 
L 258.97165 105.914552 
L 263.174661 105.914552 
L 263.556753 106.229057 
L 263.684117 106.232605 
L 264.066209 106.546806 
L 264.193573 106.546806 
L 264.575665 106.863255 
L 264.703029 106.869245 
L 265.085121 107.179675 
L 265.212485 107.179675 
L 265.594577 107.497972 
L 265.721941 107.499943 
L 266.104033 107.821261 
L 266.486125 108.075797 
L 267.122944 108.560788 
L 269.415496 108.560788 
L 269.797588 108.856897 
L 269.924952 108.862507 
L 270.307044 109.178447 
L 270.434408 109.178447 
L 270.8165 109.500386 
L 270.943864 109.500386 
L 271.325956 109.809947 
L 273.236415 111.139884 
L 273.363779 111.139884 
L 273.745871 111.462215 
L 273.873235 111.462215 
L 274.255327 111.793602 
L 275.019511 112.366802 
L 276.420515 113.383309 
L 276.547879 113.383309 
L 276.929971 113.703393 
L 277.057335 113.703393 
L 277.439427 114.025071 
L 277.566791 114.025071 
L 277.948883 114.345766 
L 278.076247 114.345766 
L 278.458338 114.665652 
L 278.585702 114.665652 
L 278.967794 114.98462 
L 279.095158 114.98462 
L 279.47725 115.305138 
L 281.769802 115.305138 
L 282.02453 115.447559 
L 282.279258 115.447559 
L 282.66135 115.774749 
L 282.788714 115.787351 
L 283.170806 116.106696 
L 283.29817 116.106696 
L 283.680262 116.433508 
L 283.807625 116.433508 
L 284.189717 116.757829 
L 284.571809 116.765763 
L 284.953901 117.092644 
L 285.081265 117.10825 
L 285.463357 117.418227 
L 285.718085 117.591534 
L 289.921096 120.166429 
L 290.557916 120.166429 
L 290.940008 120.489653 
L 291.067372 120.506065 
L 291.449464 120.810305 
L 291.576828 120.834431 
L 291.95892 121.132739 
L 292.341012 121.398029 
L 293.105196 121.951041 
L 294.124108 122.637195 
L 294.251472 122.659817 
L 294.633564 122.961607 
L 294.760928 122.968783 
L 295.143019 123.277083 
L 295.270383 123.295642 
L 295.525111 123.449327 
L 298.199755 123.502359 
L 298.581847 123.775661 
L 298.709211 123.775661 
L 299.091303 124.136892 
L 299.346031 124.291273 
L 299.982851 124.666272 
L 300.619671 125.177523 
L 301.001762 125.398564 
L 301.129126 125.398564 
L 301.511218 125.731162 
L 301.89331 125.932567 
L 302.275402 126.237774 
L 302.657494 126.396511 
L 303.039586 126.678143 
L 303.676406 126.701606 
L 304.695318 126.701606 
L 305.07741 126.941091 
L 305.332138 127.022786 
L 308.134145 127.022786 
L 308.516237 127.345867 
L 308.898329 127.593023 
L 310.299333 128.494004 
L 313.10134 128.494004 
L 313.483432 128.791099 
L 314.120252 129.180727 
L 315.903348 130.366581 
L 317.431716 131.092305 
L 317.559079 131.092305 
L 317.941171 131.417637 
L 318.068535 131.43842 
L 318.323263 131.640117 
L 319.214811 131.640117 
L 319.596903 131.946152 
L 319.724267 131.946152 
L 320.106359 132.23595 
L 320.233723 132.23595 
L 320.615815 132.481744 
L 320.743179 132.481744 
L 321.125271 132.737741 
L 321.252635 132.737741 
L 321.634727 133.02785 
L 322.398911 133.194019 
L 322.781003 133.488555 
L 323.417822 133.845214 
L 323.927278 134.223452 
L 325.710374 135.494823 
L 326.092466 135.692499 
L 326.474558 135.979803 
L 326.85665 136.191965 
L 327.49347 136.640042 
L 328.13029 137.038303 
L 329.021837 137.677076 
L 331.187025 138.916523 
L 331.569117 139.203746 
L 331.951209 139.409464 
L 332.715393 139.93155 
L 335.007944 139.93155 
L 335.390036 140.251711 
L 335.5174 140.251711 
L 335.899492 140.581754 
L 336.026856 140.581754 
L 336.408948 140.906379 
L 338.06468 140.906379 
L 338.446772 141.230985 
L 338.574136 141.230985 
L 338.956228 141.555304 
L 339.083592 141.555304 
L 339.465684 141.87838 
L 339.593048 141.882161 
L 339.97514 142.203054 
L 340.357231 142.419687 
L 341.121415 142.980669 
L 342.395055 143.835663 
L 342.522419 143.839427 
L 342.904511 144.1502 
L 343.031875 144.1502 
L 343.413967 144.439705 
L 343.541331 144.439705 
L 343.923423 144.695015 
L 344.050787 144.695015 
L 344.432879 144.993259 
L 344.560243 144.993259 
L 344.814971 145.135455 
L 346.08861 145.135455 
L 346.470702 145.446301 
L 346.598066 145.446301 
L 346.980158 145.761796 
L 347.107522 145.761796 
L 347.489614 146.076719 
L 347.616978 146.076719 
L 347.99907 146.39105 
L 348.126434 146.39105 
L 348.508526 146.704278 
L 348.63589 146.704278 
L 349.017982 147.017164 
L 349.145346 147.017164 
L 349.527438 147.331418 
L 349.654802 147.344367 
L 350.036894 147.645148 
L 350.418986 147.800432 
L 350.801078 148.050745 
L 354.112541 149.767288 
L 355.131453 149.767288 
L 355.513545 150.074902 
L 355.640909 150.074902 
L 356.023001 150.381463 
L 356.150365 150.381463 
L 356.405093 150.534651 
L 356.787185 150.817633 
L 357.041912 150.980315 
L 359.84392 152.754433 
L 359.971284 152.754433 
L 360.353376 153.030881 
L 360.48074 153.030881 
L 360.735468 153.181171 
L 363.282747 153.181171 
L 363.664839 153.483984 
L 363.792203 153.489358 
L 364.174295 153.788067 
L 364.301659 153.788067 
L 364.683751 154.09105 
L 364.938479 154.254635 
L 366.084755 154.910122 
L 366.466847 155.188597 
L 366.594211 155.188597 
L 366.976303 155.490268 
L 367.103667 155.490268 
L 367.485759 155.791654 
L 367.613123 155.791654 
L 367.867851 155.941688 
L 368.122579 155.941688 
L 368.50467 156.242779 
L 368.632034 156.242779 
L 369.014126 156.551175 
L 369.650946 156.872265 
L 370.033038 157.144721 
L 370.41513 157.326065 
L 370.797222 157.593128 
L 370.924586 157.608247 
L 371.306678 157.894704 
L 371.434042 157.899651 
L 371.816134 158.194357 
L 372.580318 158.194357 
L 372.96241 158.491188 
L 373.089774 158.491188 
L 373.471866 158.789846 
L 373.59923 158.795746 
L 373.981321 159.069166 
L 374.363413 159.231498 
L 374.745505 159.518354 
L 374.872869 159.518354 
L 375.254961 159.801549 
L 375.764417 159.830572 
L 377.165421 159.938406 
L 377.547513 160.197881 
L 377.674877 160.197881 
L 378.056969 160.463555 
L 378.184333 160.463555 
L 378.566425 160.758663 
L 378.693789 160.758663 
L 379.075881 161.053209 
L 379.203245 161.053209 
L 379.585336 161.34725 
L 379.7127 161.34725 
L 380.094792 161.641607 
L 380.222156 161.643102 
L 380.604248 161.934697 
L 380.731612 161.934697 
L 381.113704 162.226846 
L 381.241068 162.226846 
L 381.62316 162.51987 
L 381.750524 162.530743 
L 382.132616 162.811514 
L 382.387344 162.967085 
L 384.679896 164.213517 
L 386.335627 164.213517 
L 386.717719 164.497421 
L 386.845083 164.497421 
L 387.227175 164.787501 
L 387.354539 164.787501 
L 387.736631 165.077692 
L 387.863995 165.077692 
L 388.246087 165.310308 
L 391.048094 165.419643 
L 392.449098 166.020485 
L 393.213282 166.020485 
L 393.595374 166.303086 
L 393.722738 166.303086 
L 394.10483 166.593498 
L 394.486922 166.771307 
L 394.869014 167.03569 
L 397.161565 168.215228 
L 398.053113 168.215228 
L 398.435205 168.508766 
L 401.237213 169.977489 
L 401.874033 170.352998 
L 403.147672 171.004595 
L 403.529764 171.251095 
L 403.911856 171.459978 
L 404.67604 171.939941 
L 406.204408 172.667592 
L 406.5865 172.94787 
L 406.713864 172.94787 
L 407.095956 173.227995 
L 408.624323 173.227995 
L 409.006415 173.490686 
L 409.643235 173.632367 
L 410.662147 173.632367 
L 411.044239 173.911852 
L 411.426331 174.0869 
L 411.808423 174.322544 
L 412.190515 174.483339 
L 412.827335 174.864172 
L 412.954699 174.864172 
L 413.209426 175.003229 
L 414.865158 175.003229 
L 415.24725 175.244466 
L 416.011434 175.673458 
L 418.686078 177.068004 
L 419.704989 177.068004 
L 420.087081 177.344744 
L 420.214445 177.350056 
L 420.596537 177.621096 
L 420.723901 177.621096 
L 421.105993 177.89872 
L 421.233357 177.89872 
L 421.615449 178.178221 
L 422.124905 178.475323 
L 422.761725 178.831984 
L 423.653273 178.831984 
L 424.035365 179.107194 
L 424.162729 179.107194 
L 424.54482 179.366293 
L 424.672184 179.369296 
L 424.926912 179.487536 
L 425.054276 179.487536 
L 425.309004 179.611981 
L 425.945824 179.870521 
L 427.0921 180.359817 
L 427.474192 180.613291 
L 427.601556 180.613291 
L 427.983648 180.881341 
L 428.111012 180.881341 
L 428.493104 181.153176 
L 428.620468 181.153176 
L 429.00256 181.425384 
L 429.766744 181.563438 
L 430.148835 181.833967 
L 430.276199 181.833967 
L 430.658291 182.11182 
L 431.677203 182.665473 
L 432.314023 183.041695 
L 432.950843 183.460817 
L 433.205571 183.460817 
L 433.587663 183.72635 
L 433.969755 183.878434 
L 434.351847 184.133807 
L 435.370759 184.559371 
L 435.75285 184.812953 
L 435.880214 184.812953 
L 436.262306 185.077538 
L 436.38967 185.077538 
L 436.771762 185.341862 
L 436.899126 185.341862 
L 437.281218 185.605396 
L 437.408582 185.605396 
L 437.790674 185.854499 
L 438.045402 185.954224 
L 438.427494 186.094399 
L 438.809586 186.334926 
L 438.93695 186.334926 
L 439.191678 186.465701 
L 440.21059 186.55123 
L 440.465318 186.68087 
L 441.229502 186.746668 
L 445.559877 188.875895 
L 446.578789 189.592331 
L 446.960881 189.742164 
L 447.470336 190.014617 
L 447.5977 190.014617 
L 447.979792 190.267824 
L 448.107156 190.267824 
L 448.489248 190.523579 
L 448.616612 190.523579 
L 448.998704 190.778484 
L 449.126068 190.778484 
L 449.50816 191.032768 
L 449.635524 191.032768 
L 450.017616 191.28754 
L 450.654436 191.60844 
L 451.928076 192.287902 
L 454.857447 193.776504 
L 454.984811 193.776504 
L 455.239539 193.902373 
L 457.022635 193.902373 
L 457.404727 194.136182 
L 457.659455 194.246145 
L 457.914183 194.363609 
L 460.71619 195.531253 
L 461.098282 195.767045 
L 461.225646 195.767045 
L 461.607738 196.015318 
L 461.735102 196.015318 
L 462.117194 196.26619 
L 462.499286 196.408107 
L 462.881378 196.669268 
L 463.390834 196.929003 
L 466.957025 198.551607 
L 468.612757 198.551607 
L 468.994849 198.794361 
L 469.122213 198.794361 
L 469.504304 199.036543 
L 469.631668 199.036543 
L 469.886396 199.157474 
L 470.395852 199.248232 
L 471.032672 199.525728 
L 472.306312 200.103775 
L 473.962044 200.881101 
L 474.726228 201.235051 
L 476.254595 201.825272 
L 476.636687 202.061718 
L 476.764051 202.061718 
L 477.146143 202.297878 
L 477.273507 202.297878 
L 477.655599 202.534074 
L 477.782963 202.534074 
L 478.165055 202.770321 
L 478.292419 202.770321 
L 478.547147 202.888243 
L 479.183967 202.888243 
L 479.566059 203.119494 
L 479.693423 203.119494 
L 480.075515 203.348878 
L 480.202879 203.348878 
L 480.584971 203.581769 
L 480.712335 203.581769 
L 481.094426 203.815747 
L 481.22179 203.815747 
L 481.603882 204.050797 
L 481.731246 204.050797 
L 482.113338 204.285313 
L 482.240702 204.285313 
L 482.622794 204.520311 
L 482.750158 204.520311 
L 483.13225 204.755797 
L 483.514342 204.926277 
L 484.660618 205.582555 
L 485.552166 205.969727 
L 486.188986 206.272674 
L 486.31635 206.272674 
L 486.698441 206.499286 
L 486.825805 206.499286 
L 487.207897 206.732987 
L 487.335261 206.732987 
L 487.717353 206.96883 
L 488.099445 207.110755 
L 488.990993 207.535569 
L 489.373085 207.657742 
L 489.755177 207.884653 
L 490.137269 208.026697 
L 490.646725 208.277683 
L 491.538273 208.715666 
L 491.920365 208.854127 
L 493.06664 209.462685 
L 493.321368 209.566084 
L 493.70346 209.654696 
L 494.722372 210.119323 
L 495.359192 210.386825 
L 495.741284 210.58508 
L 495.868648 210.58508 
L 496.25074 210.81282 
L 496.378104 210.81282 
L 496.760196 211.040165 
L 497.142288 211.153558 
L 497.52438 211.381114 
L 497.651743 211.381114 
L 498.033835 211.608537 
L 498.161199 211.608537 
L 498.543291 211.836985 
L 498.670655 211.836985 
L 499.052747 212.063756 
L 501.472663 212.136057 
L 503.001031 212.622159 
L 503.383122 212.655725 
L 504.019942 212.96907 
L 504.402034 213.115662 
L 504.91149 213.380868 
L 505.54831 213.627105 
L 506.18513 213.928939 
L 506.82195 214.194578 
L 507.713498 214.597128 
L 507.840862 214.597128 
L 508.222954 214.820705 
L 511.279689 214.820705 
L 511.661781 215.04512 
L 511.789145 215.04512 
L 512.171237 215.2693 
L 512.553329 215.390204 
L 512.935421 215.606116 
L 513.317513 215.708552 
L 513.699605 215.932059 
L 514.591152 216.336408 
L 515.4827 216.801339 
L 515.864792 216.885707 
L 517.265796 217.323312 
L 517.647888 217.533413 
L 518.02998 217.644399 
L 518.412072 217.869111 
L 518.794164 217.979468 
L 519.048892 218.089584 
L 521.341443 218.200079 
L 521.723535 218.421224 
L 522.105627 218.564461 
L 522.487719 218.767842 
L 522.869811 218.902513 
L 523.506631 219.263745 
L 525.544455 220.006991 
L 528.346462 220.11519 
L 530.51165 221.058553 
L 532.422109 221.89219 
L 534.842025 222.846081 
L 535.096753 222.952998 
L 535.988301 223.047495 
L 538.280852 223.860866 
L 538.280852 223.860866 
" clip-path="url(#p232a2f972b)" style="fill: none; stroke: #00ffd5; stroke-opacity: 0.8; stroke-width: 1.5; stroke-linecap: square"/>
   </g>
   <g id="line2d_35">
    <path d="M 79.897898 45.841818 
L 538.280852 45.841818 
L 538.280852 45.841818 
" clip-path="url(#p232a2f972b)" style="fill: none; stroke: #008fff; stroke-opacity: 0.8; stroke-width: 1.5; stroke-linecap: square"/>
   </g>
   <g id="line2d_36">
    <path d="M 79.897898 45.841818 
L 408.242231 45.95262 
L 428.238376 45.967294 
L 495.868648 46.077316 
L 510.133413 46.110746 
L 538.280852 46.16341 
L 538.280852 46.16341 
" clip-path="url(#p232a2f972b)" style="fill: none; stroke: #0b00ff; stroke-opacity: 0.8; stroke-width: 1.5; stroke-linecap: square"/>
   </g>
   <g id="line2d_37">
    <path d="M 79.897898 45.841818 
L 231.588395 45.952859 
L 244.706884 45.99434 
L 284.062353 46.10458 
L 293.359924 46.136145 
L 348.381162 46.245205 
L 357.041912 46.294656 
L 380.731612 46.405717 
L 477.528235 46.816315 
L 483.641706 46.870208 
L 507.586134 46.980369 
L 512.808057 47.010056 
L 538.280852 47.119977 
L 538.280852 47.119977 
" clip-path="url(#p232a2f972b)" style="fill: none; stroke: #a500ff; stroke-opacity: 0.8; stroke-width: 1.5; stroke-linecap: square"/>
   </g>
   <g id="line2d_38">
    <path d="M 79.897898 45.841818 
L 195.544389 45.950596 
L 202.167316 45.967163 
L 240.249145 46.076351 
L 245.725796 46.113848 
L 270.689136 46.221451 
L 275.401603 46.244077 
L 308.770965 46.352993 
L 313.10134 46.356719 
L 339.083592 46.463866 
L 342.140327 46.480871 
L 355.386181 46.58695 
L 358.442916 46.602563 
L 371.68877 46.711703 
L 374.618141 46.729874 
L 389.137635 46.836729 
L 393.595374 46.892285 
L 409.515871 47.003391 
L 424.54482 47.113923 
L 436.38967 47.223334 
L 438.93695 47.250149 
L 456.003723 47.354355 
L 458.423638 47.379455 
L 479.311331 47.48636 
L 481.85861 47.539344 
L 497.906471 47.647937 
L 500.326387 47.693867 
L 515.100608 47.80158 
L 518.157344 47.874402 
L 532.676837 47.982924 
L 536.625121 48.026078 
L 538.280852 48.069288 
L 538.280852 48.069288 
" clip-path="url(#p232a2f972b)" style="fill: none; stroke: #ff00bf; stroke-opacity: 0.8; stroke-width: 1.5; stroke-linecap: square"/>
   </g>
   <g id="line2d_39">
    <path d="M 56.97875 439.478182 
L 561.2 439.478182 
" clip-path="url(#p232a2f972b)" style="fill: none; stroke-dasharray: 5.55,2.4; stroke-dashoffset: 0; stroke: #ff0000; stroke-width: 1.5"/>
   </g>
   <g id="patch_3">
    <path d="M 56.97875 459.16 
L 56.97875 26.16 
" style="fill: none; stroke: #000000; stroke-width: 0.8; stroke-linejoin: miter; stroke-linecap: square"/>
   </g>
   <g id="patch_4">
    <path d="M 561.2 459.16 
L 561.2 26.16 
" style="fill: none; stroke: #000000; stroke-width: 0.8; stroke-linejoin: miter; stroke-linecap: square"/>
   </g>
   <g id="patch_5">
    <path d="M 56.97875 459.16 
L 561.2 459.16 
" style="fill: none; stroke: #000000; stroke-width: 0.8; stroke-linejoin: miter; stroke-linecap: square"/>
   </g>
   <g id="patch_6">
    <path d="M 56.97875 26.16 
L 561.2 26.16 
" style="fill: none; stroke: #000000; stroke-width: 0.8; stroke-linejoin: miter; stroke-linecap: square"/>
   </g>
   <g id="text_17">
    <!-- 各UAV能量变化 -->
    <g transform="translate(266.825937 20.16) scale(0.12 -0.12)">
     <defs>
      <path id="MicrosoftYaHei-5404" d="M 1838 5366 
L 2325 5191 
Q 2191 4934 2038 4691 
L 5463 4691 
L 5463 4234 
Q 4819 3428 3806 2831 
Q 4881 2366 6375 2266 
Q 6169 1953 6025 1703 
Q 4388 1947 3272 2544 
Q 2022 1925 300 1578 
Q 169 1828 31 2059 
Q 1591 2303 2775 2844 
Q 2041 3347 1588 4038 
Q 1138 3444 569 2916 
Q 400 3122 225 3278 
Q 1288 4191 1838 5366 
z
M 1100 1666 
L 5363 1666 
L 5363 -803 
L 4875 -803 
L 4875 -441 
L 1588 -441 
L 1588 -803 
L 1100 -803 
L 1100 1666 
z
M 4875 1216 
L 1588 1216 
L 1588 -3 
L 4875 -3 
L 4875 1216 
z
M 4794 4241 
L 1988 4241 
Q 2494 3547 3275 3094 
Q 4153 3575 4794 4241 
z
" transform="scale(0.015625)"/>
      <path id="MicrosoftYaHei-55" d="M 4213 1972 
Q 4213 -81 2350 -81 
Q 566 -81 566 1900 
L 566 4841 
L 1191 4841 
L 1191 1928 
Q 1191 475 2409 475 
Q 3588 475 3588 1881 
L 3588 4841 
L 4213 4841 
L 4213 1972 
z
" transform="scale(0.015625)"/>
      <path id="MicrosoftYaHei-41" d="M 4428 0 
L 3738 0 
L 3244 1325 
L 1228 1325 
L 763 0 
L 72 0 
L 1916 4841 
L 2584 4841 
L 4428 0 
z
M 3050 1872 
L 2319 3884 
Q 2284 3981 2244 4222 
L 2228 4222 
Q 2194 4003 2150 3884 
L 1425 1872 
L 3050 1872 
z
" transform="scale(0.015625)"/>
      <path id="MicrosoftYaHei-56" d="M 4272 4841 
L 2494 0 
L 1800 0 
L 56 4841 
L 750 4841 
L 2053 1056 
Q 2119 869 2150 622 
L 2166 622 
Q 2191 838 2275 1063 
L 3603 4841 
L 4272 4841 
z
" transform="scale(0.015625)"/>
      <path id="MicrosoftYaHei-53d8" d="M 838 1634 
L 838 2066 
L 5088 2066 
L 5088 1634 
Q 4494 853 3659 309 
Q 4675 -178 6313 -297 
Q 6088 -609 5950 -822 
Q 4275 -594 3178 34 
Q 2122 -509 425 -866 
Q 269 -622 106 -403 
Q 1741 -122 2728 328 
Q 2047 838 1553 1634 
L 838 1634 
z
M 231 4534 
L 3081 4534 
Q 2888 4884 2725 5141 
L 3175 5359 
Q 3481 4884 3600 4659 
L 3359 4534 
L 6200 4534 
L 6200 4091 
L 4181 4091 
L 4181 2353 
L 3700 2353 
L 3700 4091 
L 2694 4091 
L 2694 2341 
L 2213 2341 
L 2213 4091 
L 231 4091 
L 231 4534 
z
M 4475 1634 
L 2116 1634 
Q 2575 953 3197 572 
Q 3947 1016 4475 1634 
z
M 4556 3434 
L 4900 3728 
Q 5700 3009 6213 2459 
L 5825 2116 
Q 5219 2797 4556 3434 
z
M 1381 3741 
L 1756 3422 
Q 1119 2691 500 2097 
Q 344 2272 138 2447 
Q 794 3009 1381 3741 
z
" transform="scale(0.015625)"/>
      <path id="MicrosoftYaHei-5316" d="M 1844 1453 
Q 2663 1834 3375 2331 
L 3375 5197 
L 3913 5197 
L 3913 2734 
Q 4869 3506 5613 4516 
L 6069 4184 
Q 5159 2975 3913 2069 
L 3913 303 
Q 3913 -122 4363 -122 
L 5156 -122 
Q 5581 -122 5650 284 
Q 5738 709 5763 1266 
Q 6025 1166 6313 1084 
Q 6263 559 6181 122 
Q 6063 -597 5281 -597 
L 4225 -597 
Q 3375 -597 3375 241 
L 3375 1703 
Q 2791 1328 2144 1016 
Q 2013 1222 1844 1453 
z
M 88 2222 
Q 1175 3666 1688 5291 
L 2231 5134 
Q 1934 4359 1588 3675 
L 1588 -797 
L 1063 -797 
L 1063 2734 
Q 716 2172 325 1678 
Q 219 1947 88 2222 
z
" transform="scale(0.015625)"/>
     </defs>
     <use xlink:href="#MicrosoftYaHei-5404"/>
     <use xlink:href="#MicrosoftYaHei-55" transform="translate(100 0)"/>
     <use xlink:href="#MicrosoftYaHei-41" transform="translate(172.533203 0)"/>
     <use xlink:href="#MicrosoftYaHei-56" transform="translate(236.769531 0)"/>
     <use xlink:href="#MicrosoftYaHei-80fd" transform="translate(304.396484 0)"/>
     <use xlink:href="#MicrosoftYaHei-91cf" transform="translate(404.396484 0)"/>
     <use xlink:href="#MicrosoftYaHei-53d8" transform="translate(504.396484 0)"/>
     <use xlink:href="#MicrosoftYaHei-5316" transform="translate(604.396484 0)"/>
    </g>
   </g>
   <g id="legend_1">
    <g id="patch_7">
     <path d="M 588.255312 204.436562 
L 680.255312 204.436562 
Q 682.255312 204.436562 682.255312 202.436562 
L 682.255312 33.16 
Q 682.255312 31.16 680.255312 31.16 
L 588.255312 31.16 
Q 586.255312 31.16 586.255312 33.16 
L 586.255312 202.436562 
Q 586.255312 204.436562 588.255312 204.436562 
z
" style="fill: #ffffff; opacity: 0.8; stroke: #cccccc; stroke-linejoin: miter"/>
    </g>
    <g id="line2d_40">
     <path d="M 590.255312 39.65375 
L 600.255312 39.65375 
L 610.255312 39.65375 
" style="fill: none; stroke: #ff0029; stroke-opacity: 0.8; stroke-width: 1.5; stroke-linecap: square"/>
    </g>
    <g id="text_18">
     <!-- UAV 0 -->
     <g transform="translate(618.255312 43.15375) scale(0.1 -0.1)">
      <use xlink:href="#MicrosoftYaHei-55"/>
      <use xlink:href="#MicrosoftYaHei-41" transform="translate(72.533203 0)"/>
      <use xlink:href="#MicrosoftYaHei-56" transform="translate(136.769531 0)"/>
      <use xlink:href="#MicrosoftYaHei-20" transform="translate(204.396484 0)"/>
      <use xlink:href="#MicrosoftYaHei-30" transform="translate(233.986328 0)"/>
     </g>
    </g>
    <g id="line2d_41">
     <path d="M 590.255312 55.133437 
L 600.255312 55.133437 
L 610.255312 55.133437 
" style="fill: none; stroke: #ff7000; stroke-opacity: 0.8; stroke-width: 1.5; stroke-linecap: square"/>
    </g>
    <g id="text_19">
     <!-- UAV 1 -->
     <g transform="translate(618.255312 58.633437) scale(0.1 -0.1)">
      <use xlink:href="#MicrosoftYaHei-55"/>
      <use xlink:href="#MicrosoftYaHei-41" transform="translate(72.533203 0)"/>
      <use xlink:href="#MicrosoftYaHei-56" transform="translate(136.769531 0)"/>
      <use xlink:href="#MicrosoftYaHei-20" transform="translate(204.396484 0)"/>
      <use xlink:href="#MicrosoftYaHei-31" transform="translate(233.986328 0)"/>
     </g>
    </g>
    <g id="line2d_42">
     <path d="M 590.255312 70.613125 
L 600.255312 70.613125 
L 610.255312 70.613125 
" style="fill: none; stroke: #f5ff00; stroke-opacity: 0.8; stroke-width: 1.5; stroke-linecap: square"/>
    </g>
    <g id="text_20">
     <!-- UAV 2 -->
     <g transform="translate(618.255312 74.113125) scale(0.1 -0.1)">
      <use xlink:href="#MicrosoftYaHei-55"/>
      <use xlink:href="#MicrosoftYaHei-41" transform="translate(72.533203 0)"/>
      <use xlink:href="#MicrosoftYaHei-56" transform="translate(136.769531 0)"/>
      <use xlink:href="#MicrosoftYaHei-20" transform="translate(204.396484 0)"/>
      <use xlink:href="#MicrosoftYaHei-32" transform="translate(233.986328 0)"/>
     </g>
    </g>
    <g id="line2d_43">
     <path d="M 590.255312 86.092812 
L 600.255312 86.092812 
L 610.255312 86.092812 
" style="fill: none; stroke: #5cff00; stroke-opacity: 0.8; stroke-width: 1.5; stroke-linecap: square"/>
    </g>
    <g id="text_21">
     <!-- UAV 3 -->
     <g transform="translate(618.255312 89.592812) scale(0.1 -0.1)">
      <use xlink:href="#MicrosoftYaHei-55"/>
      <use xlink:href="#MicrosoftYaHei-41" transform="translate(72.533203 0)"/>
      <use xlink:href="#MicrosoftYaHei-56" transform="translate(136.769531 0)"/>
      <use xlink:href="#MicrosoftYaHei-20" transform="translate(204.396484 0)"/>
      <use xlink:href="#MicrosoftYaHei-33" transform="translate(233.986328 0)"/>
     </g>
    </g>
    <g id="line2d_44">
     <path d="M 590.255312 101.5725 
L 600.255312 101.5725 
L 610.255312 101.5725 
" style="fill: none; stroke: #00ff3d; stroke-opacity: 0.8; stroke-width: 1.5; stroke-linecap: square"/>
    </g>
    <g id="text_22">
     <!-- UAV 4 -->
     <g transform="translate(618.255312 105.0725) scale(0.1 -0.1)">
      <use xlink:href="#MicrosoftYaHei-55"/>
      <use xlink:href="#MicrosoftYaHei-41" transform="translate(72.533203 0)"/>
      <use xlink:href="#MicrosoftYaHei-56" transform="translate(136.769531 0)"/>
      <use xlink:href="#MicrosoftYaHei-20" transform="translate(204.396484 0)"/>
      <use xlink:href="#MicrosoftYaHei-34" transform="translate(233.986328 0)"/>
     </g>
    </g>
    <g id="line2d_45">
     <path d="M 590.255312 117.052187 
L 600.255312 117.052187 
L 610.255312 117.052187 
" style="fill: none; stroke: #00ffd5; stroke-opacity: 0.8; stroke-width: 1.5; stroke-linecap: square"/>
    </g>
    <g id="text_23">
     <!-- UAV 5 -->
     <g transform="translate(618.255312 120.552187) scale(0.1 -0.1)">
      <use xlink:href="#MicrosoftYaHei-55"/>
      <use xlink:href="#MicrosoftYaHei-41" transform="translate(72.533203 0)"/>
      <use xlink:href="#MicrosoftYaHei-56" transform="translate(136.769531 0)"/>
      <use xlink:href="#MicrosoftYaHei-20" transform="translate(204.396484 0)"/>
      <use xlink:href="#MicrosoftYaHei-35" transform="translate(233.986328 0)"/>
     </g>
    </g>
    <g id="line2d_46">
     <path d="M 590.255312 132.531875 
L 600.255312 132.531875 
L 610.255312 132.531875 
" style="fill: none; stroke: #008fff; stroke-opacity: 0.8; stroke-width: 1.5; stroke-linecap: square"/>
    </g>
    <g id="text_24">
     <!-- UAV 6 -->
     <g transform="translate(618.255312 136.031875) scale(0.1 -0.1)">
      <defs>
       <path id="MicrosoftYaHei-36" d="M 3181 4219 
Q 2803 4413 2391 4413 
Q 1763 4413 1381 3866 
Q 1000 3319 994 2372 
L 1009 2372 
Q 1353 3038 2106 3038 
Q 2734 3038 3109 2628 
Q 3484 2219 3484 1541 
Q 3484 831 3051 375 
Q 2619 -81 1947 -81 
Q 1209 -81 789 495 
Q 369 1072 369 2131 
Q 369 3413 920 4167 
Q 1472 4922 2372 4922 
Q 2888 4922 3181 4781 
L 3181 4219 
z
M 1031 1584 
Q 1031 1106 1286 765 
Q 1541 425 1963 425 
Q 2363 425 2613 719 
Q 2863 1013 2863 1475 
Q 2863 1975 2627 2253 
Q 2391 2531 1956 2531 
Q 1544 2531 1287 2250 
Q 1031 1969 1031 1584 
z
" transform="scale(0.015625)"/>
      </defs>
      <use xlink:href="#MicrosoftYaHei-55"/>
      <use xlink:href="#MicrosoftYaHei-41" transform="translate(72.533203 0)"/>
      <use xlink:href="#MicrosoftYaHei-56" transform="translate(136.769531 0)"/>
      <use xlink:href="#MicrosoftYaHei-20" transform="translate(204.396484 0)"/>
      <use xlink:href="#MicrosoftYaHei-36" transform="translate(233.986328 0)"/>
     </g>
    </g>
    <g id="line2d_47">
     <path d="M 590.255312 148.011562 
L 600.255312 148.011562 
L 610.255312 148.011562 
" style="fill: none; stroke: #0b00ff; stroke-opacity: 0.8; stroke-width: 1.5; stroke-linecap: square"/>
    </g>
    <g id="text_25">
     <!-- UAV 7 -->
     <g transform="translate(618.255312 151.511562) scale(0.1 -0.1)">
      <defs>
       <path id="MicrosoftYaHei-37" d="M 3422 4463 
Q 2659 3131 2223 1998 
Q 1788 866 1684 0 
L 1047 0 
Q 1163 853 1594 1947 
Q 2025 3041 2747 4300 
L 347 4300 
L 347 4841 
L 3422 4841 
L 3422 4463 
z
" transform="scale(0.015625)"/>
      </defs>
      <use xlink:href="#MicrosoftYaHei-55"/>
      <use xlink:href="#MicrosoftYaHei-41" transform="translate(72.533203 0)"/>
      <use xlink:href="#MicrosoftYaHei-56" transform="translate(136.769531 0)"/>
      <use xlink:href="#MicrosoftYaHei-20" transform="translate(204.396484 0)"/>
      <use xlink:href="#MicrosoftYaHei-37" transform="translate(233.986328 0)"/>
     </g>
    </g>
    <g id="line2d_48">
     <path d="M 590.255312 163.49125 
L 600.255312 163.49125 
L 610.255312 163.49125 
" style="fill: none; stroke: #a500ff; stroke-opacity: 0.8; stroke-width: 1.5; stroke-linecap: square"/>
    </g>
    <g id="text_26">
     <!-- UAV 8 -->
     <g transform="translate(618.255312 166.99125) scale(0.1 -0.1)">
      <defs>
       <path id="MicrosoftYaHei-38" d="M 306 1350 
Q 306 1769 556 2122 
Q 806 2475 1200 2625 
Q 884 2803 700 3081 
Q 516 3359 516 3684 
Q 516 4028 692 4312 
Q 869 4597 1183 4759 
Q 1497 4922 1875 4922 
Q 2256 4922 2572 4761 
Q 2888 4600 3063 4315 
Q 3238 4031 3238 3684 
Q 3238 3366 3058 3086 
Q 2878 2806 2559 2625 
Q 2953 2472 3200 2119 
Q 3447 1766 3447 1350 
Q 3447 938 3250 611 
Q 3053 284 2690 103 
Q 2328 -78 1875 -78 
Q 1425 -78 1065 103 
Q 706 284 506 612 
Q 306 941 306 1350 
z
M 906 1378 
Q 906 947 1172 687 
Q 1438 428 1878 428 
Q 2309 428 2582 692 
Q 2856 956 2856 1378 
Q 2856 1778 2579 2051 
Q 2303 2325 1878 2325 
Q 1456 2325 1181 2058 
Q 906 1791 906 1378 
z
M 1081 3634 
Q 1081 3309 1312 3076 
Q 1544 2844 1878 2844 
Q 2206 2844 2445 3078 
Q 2684 3313 2684 3634 
Q 2684 3963 2454 4191 
Q 2225 4419 1878 4419 
Q 1534 4419 1307 4195 
Q 1081 3972 1081 3634 
z
" transform="scale(0.015625)"/>
      </defs>
      <use xlink:href="#MicrosoftYaHei-55"/>
      <use xlink:href="#MicrosoftYaHei-41" transform="translate(72.533203 0)"/>
      <use xlink:href="#MicrosoftYaHei-56" transform="translate(136.769531 0)"/>
      <use xlink:href="#MicrosoftYaHei-20" transform="translate(204.396484 0)"/>
      <use xlink:href="#MicrosoftYaHei-38" transform="translate(233.986328 0)"/>
     </g>
    </g>
    <g id="line2d_49">
     <path d="M 590.255312 178.970937 
L 600.255312 178.970937 
L 610.255312 178.970937 
" style="fill: none; stroke: #ff00bf; stroke-opacity: 0.8; stroke-width: 1.5; stroke-linecap: square"/>
    </g>
    <g id="text_27">
     <!-- UAV 9 -->
     <g transform="translate(618.255312 182.470937) scale(0.1 -0.1)">
      <defs>
       <path id="MicrosoftYaHei-39" d="M 578 656 
Q 978 425 1441 425 
Q 2091 425 2448 937 
Q 2806 1450 2806 2394 
Q 2800 2388 2794 2394 
Q 2475 1788 1722 1788 
Q 1113 1788 713 2206 
Q 313 2625 313 3294 
Q 313 4006 750 4464 
Q 1188 4922 1884 4922 
Q 2606 4922 3012 4355 
Q 3419 3788 3419 2703 
Q 3419 1363 2894 641 
Q 2369 -81 1441 -81 
Q 931 -81 578 84 
L 578 656 
z
M 931 3372 
Q 931 2884 1181 2598 
Q 1431 2313 1872 2313 
Q 2253 2313 2512 2573 
Q 2772 2834 2772 3206 
Q 2772 3728 2514 4070 
Q 2256 4413 1834 4413 
Q 1444 4413 1187 4116 
Q 931 3819 931 3372 
z
" transform="scale(0.015625)"/>
      </defs>
      <use xlink:href="#MicrosoftYaHei-55"/>
      <use xlink:href="#MicrosoftYaHei-41" transform="translate(72.533203 0)"/>
      <use xlink:href="#MicrosoftYaHei-56" transform="translate(136.769531 0)"/>
      <use xlink:href="#MicrosoftYaHei-20" transform="translate(204.396484 0)"/>
      <use xlink:href="#MicrosoftYaHei-39" transform="translate(233.986328 0)"/>
     </g>
    </g>
    <g id="line2d_50">
     <path d="M 590.255312 194.450625 
L 600.255312 194.450625 
L 610.255312 194.450625 
" style="fill: none; stroke-dasharray: 5.55,2.4; stroke-dashoffset: 0; stroke: #ff0000; stroke-width: 1.5"/>
    </g>
    <g id="text_28">
     <!-- 最低安全能量 -->
     <g transform="translate(618.255312 197.950625) scale(0.1 -0.1)">
      <defs>
       <path id="MicrosoftYaHei-6700" d="M 169 -28 
Q 475 3 781 38 
L 781 2416 
L 94 2416 
L 94 2791 
L 6288 2791 
L 6288 2416 
L 3025 2416 
L 3025 331 
Q 3325 375 3625 422 
Q 3619 309 3631 22 
Q 3338 -19 3025 -63 
L 3025 -859 
L 2600 -859 
L 2600 -125 
Q 1525 -278 281 -472 
L 169 -28 
z
M 1038 5053 
L 5363 5053 
L 5363 3047 
L 4925 3047 
L 4925 3191 
L 1475 3191 
L 1475 3047 
L 1038 3047 
L 1038 5053 
z
M 3338 1609 
L 3338 1972 
L 5819 1972 
L 5819 1609 
Q 5500 844 4981 278 
Q 5516 -113 6306 -316 
Q 6144 -553 6025 -753 
Q 5219 -488 4666 -34 
Q 4128 -516 3413 -822 
Q 3306 -634 3125 -428 
Q 3834 -156 4347 266 
Q 3825 825 3603 1609 
L 3338 1609 
z
M 1475 3553 
L 4925 3553 
L 4925 3953 
L 1475 3953 
L 1475 3553 
z
M 4925 4691 
L 1475 4691 
L 1475 4291 
L 4925 4291 
L 4925 4691 
z
M 5344 1609 
L 4025 1609 
Q 4222 994 4659 556 
Q 5094 1013 5344 1609 
z
M 2600 269 
L 2600 691 
L 1206 691 
L 1206 88 
Q 1913 172 2600 269 
z
M 1206 1916 
L 2600 1916 
L 2600 2416 
L 1206 2416 
L 1206 1916 
z
M 1206 1053 
L 2600 1053 
L 2600 1553 
L 1206 1553 
L 1206 1053 
z
" transform="scale(0.015625)"/>
       <path id="MicrosoftYaHei-4f4e" d="M 2275 4809 
Q 4069 4809 5994 5072 
L 6169 4603 
Q 5306 4522 4497 4469 
Q 4513 3594 4556 2872 
L 6250 2872 
L 6250 2422 
L 4591 2422 
Q 4775 250 5581 -172 
Q 5756 -247 5806 -41 
Q 5863 278 5913 897 
Q 6156 784 6363 728 
Q 6300 141 6225 -241 
Q 6119 -728 5738 -728 
Q 5275 -728 4856 -178 
Q 4259 644 4122 2422 
L 2750 2422 
L 2750 209 
Q 3425 597 3913 878 
Q 3950 591 4006 397 
Q 3206 -59 2744 -353 
Q 2563 -472 2388 -634 
L 2063 -222 
Q 2275 -41 2275 316 
L 2275 4809 
z
M 38 2397 
Q 1000 3697 1531 5334 
L 1988 5172 
Q 1678 4309 1306 3578 
L 1306 -828 
L 856 -828 
L 856 2778 
Q 550 2288 213 1872 
Q 138 2122 38 2397 
z
M 4016 4441 
Q 3366 4403 2750 4384 
L 2750 2872 
L 4094 2872 
Q 4059 3481 4016 4441 
z
M 3531 -116 
L 3856 141 
Q 4206 -191 4544 -566 
L 4181 -859 
Q 3888 -491 3531 -116 
z
" transform="scale(0.015625)"/>
       <path id="MicrosoftYaHei-5b89" d="M 325 -322 
Q 1894 -81 2888 478 
Q 2072 859 1163 1266 
Q 1459 1709 1747 2191 
L 106 2191 
L 106 2653 
L 2019 2653 
Q 2334 3206 2644 3803 
L 3138 3597 
Q 2863 3113 2597 2653 
L 6306 2653 
L 6306 2191 
L 4966 2191 
Q 4653 1244 3888 572 
Q 4872 128 5850 -328 
L 5544 -828 
Q 4591 -328 3434 219 
Q 2347 -513 588 -834 
Q 475 -597 325 -322 
z
M 413 4397 
L 3228 4397 
Q 2991 4741 2681 5103 
L 3100 5384 
Q 3481 4972 3744 4591 
L 3456 4397 
L 6013 4397 
L 6013 3209 
L 5506 3209 
L 5506 3934 
L 913 3934 
L 913 3209 
L 413 3209 
L 413 4397 
z
M 1881 1453 
Q 2631 1131 3375 800 
Q 4122 1369 4422 2191 
L 2325 2191 
Q 2100 1813 1881 1453 
z
" transform="scale(0.015625)"/>
       <path id="MicrosoftYaHei-5168" d="M 369 -103 
L 2950 -103 
L 2950 984 
L 925 984 
L 925 1441 
L 2950 1441 
L 2950 2403 
L 1156 2403 
L 1156 2859 
L 5269 2859 
L 5269 2403 
L 3469 2403 
L 3469 1441 
L 5500 1441 
L 5500 984 
L 3469 984 
L 3469 -103 
L 6044 -103 
L 6044 -566 
L 369 -566 
L 369 -103 
z
M 3656 5234 
L 3531 5078 
Q 4581 3703 6319 3009 
Q 6125 2734 5988 2509 
Q 4338 3322 3219 4691 
Q 2263 3453 394 2428 
Q 269 2641 81 2897 
Q 2013 3866 3000 5234 
L 3656 5234 
z
" transform="scale(0.015625)"/>
      </defs>
      <use xlink:href="#MicrosoftYaHei-6700"/>
      <use xlink:href="#MicrosoftYaHei-4f4e" transform="translate(100 0)"/>
      <use xlink:href="#MicrosoftYaHei-5b89" transform="translate(200 0)"/>
      <use xlink:href="#MicrosoftYaHei-5168" transform="translate(300 0)"/>
      <use xlink:href="#MicrosoftYaHei-80fd" transform="translate(400 0)"/>
      <use xlink:href="#MicrosoftYaHei-91cf" transform="translate(500 0)"/>
     </g>
    </g>
   </g>
  </g>
 </g>
 <defs>
  <clipPath id="p232a2f972b">
   <rect x="56.97875" y="26.16" width="504.22125" height="433"/>
  </clipPath>
 </defs>
</svg>
